<svg width="53" height="53" viewBox="0 0 53 53" fill="none" xmlns="http://www.w3.org/2000/svg">
<g clip-path="url(#clip0_76_1529)">
<path d="M27.251 32.6953C27.1494 32.4922 26.9886 32.3568 26.7686 32.2891C26.5485 32.2214 26.3369 32.2383 26.1338 32.3398C25.7952 32.4753 25.4567 32.6107 25.1182 32.7461C24.7796 32.8815 24.4242 33 24.0518 33.1016C23.9163 33.1354 23.7979 33.2116 23.6963 33.3301C23.5947 33.4486 23.527 33.5755 23.4932 33.7109L22.6299 38.0781C22.5622 38.2812 22.4437 38.459 22.2744 38.6113C22.1051 38.7637 21.9189 38.8398 21.7158 38.8398H19.3291C19.126 38.8398 18.9398 38.7637 18.7705 38.6113C18.6012 38.459 18.4827 38.2812 18.415 38.0781L17.5518 33.7109C17.5179 33.5755 17.4502 33.4486 17.3486 33.3301C17.2471 33.2116 17.1286 33.1354 16.9932 33.1016C16.4854 32.9661 15.986 32.7969 15.4951 32.5938C15.0042 32.3906 14.5387 32.1706 14.0986 31.9336C13.9632 31.832 13.8193 31.7897 13.667 31.8066C13.5146 31.8236 13.3708 31.8659 13.2354 31.9336L9.52832 34.4219C9.35905 34.5234 9.16439 34.5658 8.94434 34.5488C8.72428 34.5319 8.54655 34.4388 8.41113 34.2695L6.73535 32.5938C6.56608 32.4583 6.47298 32.2806 6.45605 32.0605C6.43913 31.8405 6.48145 31.6289 6.58301 31.4258L9.07129 27.7695C9.139 27.6341 9.18132 27.4902 9.19824 27.3379C9.21517 27.1855 9.17285 27.0417 9.07129 26.9062C8.83431 26.4323 8.61426 25.9583 8.41113 25.4844C8.20801 25.0104 8.03874 24.5195 7.90332 24.0117C7.86947 23.8763 7.79329 23.7578 7.6748 23.6562C7.55631 23.5547 7.41244 23.487 7.24316 23.4531L2.92676 22.5898C2.72363 22.5221 2.5459 22.4036 2.39355 22.2344C2.24121 22.0651 2.16504 21.8789 2.16504 21.6758V19.2891C2.16504 19.0859 2.24121 18.8997 2.39355 18.7305C2.5459 18.5612 2.72363 18.4427 2.92676 18.375L7.24316 17.5117C7.41244 17.4779 7.55631 17.4102 7.6748 17.3086C7.79329 17.207 7.86947 17.0885 7.90332 16.9531C8.03874 16.4453 8.20801 15.946 8.41113 15.4551C8.61426 14.9642 8.83431 14.4987 9.07129 14.0586C9.17285 13.9232 9.21517 13.7793 9.19824 13.627C9.18132 13.4746 9.139 13.3307 9.07129 13.1953L6.58301 9.48828C6.48145 9.31901 6.43913 9.12435 6.45605 8.9043C6.47298 8.68425 6.56608 8.50651 6.73535 8.37109L8.41113 6.69531C8.54655 6.52604 8.72428 6.43294 8.94434 6.41602C9.16439 6.39909 9.35905 6.44141 9.52832 6.54297L13.2354 9.03125C13.3708 9.09896 13.5146 9.14128 13.667 9.1582C13.8193 9.17513 13.9632 9.13281 14.0986 9.03125C14.5387 8.79427 15.0042 8.57422 15.4951 8.37109C15.986 8.16797 16.4854 7.9987 16.9932 7.86328C17.1286 7.82943 17.2471 7.75325 17.3486 7.63477C17.4502 7.51628 17.5179 7.37239 17.5518 7.20312L18.415 2.88672C18.4827 2.68359 18.6012 2.50586 18.7705 2.35352C18.9398 2.20117 19.126 2.125 19.3291 2.125H21.7158C21.9189 2.125 22.1051 2.20117 22.2744 2.35352C22.4437 2.50586 22.5622 2.68359 22.6299 2.88672L23.4932 7.20312C23.527 7.37239 23.5947 7.51628 23.6963 7.63477C23.7979 7.75325 23.9163 7.82943 24.0518 7.86328C24.5596 7.9987 25.0589 8.16797 25.5498 8.37109C26.0407 8.57422 26.5062 8.79427 26.9463 9.03125C27.0817 9.13281 27.2256 9.17513 27.3779 9.1582C27.5303 9.14128 27.6742 9.09896 27.8096 9.03125L31.4658 6.54297C31.6689 6.44141 31.8805 6.39909 32.1006 6.41602C32.3206 6.43294 32.4984 6.52604 32.6338 6.69531L34.3096 8.37109C34.4788 8.50651 34.5719 8.68425 34.5889 8.9043C34.6058 9.12435 34.5635 9.31901 34.4619 9.48828L31.9736 13.1953C31.9059 13.3307 31.8636 13.4746 31.8467 13.627C31.8298 13.7793 31.8721 13.9232 31.9736 14.0586C32.2106 14.4987 32.4307 14.9642 32.6338 15.4551C32.8369 15.946 33.0062 16.4453 33.1416 16.9531C33.1755 17.0885 33.2516 17.207 33.3701 17.3086C33.4886 17.4102 33.6156 17.4779 33.751 17.5117L38.1182 18.375C38.3213 18.4427 38.499 18.5612 38.6514 18.7305C38.8037 18.8997 38.8799 19.0859 38.8799 19.2891V21.6758C38.8799 21.8789 38.8037 22.0651 38.6514 22.2344C38.499 22.4036 38.3213 22.5221 38.1182 22.5898L33.751 23.4531C33.6156 23.487 33.4886 23.5547 33.3701 23.6562C33.2516 23.7578 33.1755 23.8763 33.1416 24.0117C33.04 24.3841 32.9216 24.748 32.7861 25.1035C32.6507 25.459 32.4984 25.806 32.3291 26.1445C32.2275 26.3477 32.2191 26.5592 32.3037 26.7793C32.3883 26.9993 32.5322 27.1602 32.7354 27.2617C32.9385 27.3294 33.1501 27.3294 33.3701 27.2617C33.5902 27.194 33.7341 27.0586 33.8018 26.8555C33.971 26.5508 34.1149 26.2376 34.2334 25.916C34.3519 25.5944 34.4619 25.2643 34.5635 24.9258L38.4229 24.1641C39.0322 24.0625 39.5316 23.7747 39.9209 23.3008C40.3102 22.8268 40.5049 22.2852 40.5049 21.6758V19.2891C40.5049 18.6797 40.3102 18.138 39.9209 17.6641C39.5316 17.1901 39.0322 16.9023 38.4229 16.8008L34.5635 15.9883C34.4619 15.6159 34.3265 15.235 34.1572 14.8457C33.988 14.4564 33.8018 14.0755 33.5986 13.7031L35.7822 10.4023C36.1208 9.89453 36.2646 9.33594 36.2139 8.72656C36.1631 8.11719 35.9176 7.60938 35.4775 7.20312L33.8018 5.52734C33.3617 5.08724 32.8369 4.83333 32.2275 4.76562C31.6182 4.69792 31.0596 4.83333 30.5518 5.17188L27.3018 7.35547C26.9294 7.1862 26.5485 7.01693 26.1592 6.84766C25.7699 6.67839 25.3721 6.54297 24.9658 6.44141L24.2041 2.58203C24.1025 1.97266 23.8148 1.47331 23.3408 1.08398C22.8669 0.69466 22.3252 0.5 21.7158 0.5H19.3291C18.7197 0.5 18.1781 0.69466 17.7041 1.08398C17.2301 1.47331 16.9424 1.97266 16.8408 2.58203L16.0283 6.44141C15.6559 6.54297 15.2751 6.67839 14.8857 6.84766C14.4964 7.01693 14.1156 7.1862 13.7432 7.35547L10.4424 5.17188C9.93457 4.83333 9.37598 4.69792 8.7666 4.76562C8.15723 4.83333 7.64941 5.08724 7.24316 5.52734L5.56738 7.20312C5.12728 7.60938 4.87337 8.11719 4.80566 8.72656C4.73796 9.33594 4.87337 9.89453 5.21191 10.4023L7.39551 13.7031C7.22624 14.0755 7.05697 14.4564 6.8877 14.8457C6.71842 15.235 6.58301 15.6159 6.48145 15.9883L2.62207 16.8008C2.0127 16.9023 1.51335 17.1901 1.12402 17.6641C0.734701 18.138 0.540039 18.6797 0.540039 19.2891V21.6758C0.540039 22.2852 0.734701 22.8268 1.12402 23.3008C1.51335 23.7747 2.0127 24.0625 2.62207 24.1641L6.48145 24.9258C6.58301 25.332 6.71842 25.7298 6.8877 26.1191C7.05697 26.5085 7.22624 26.8893 7.39551 27.2617L5.21191 30.5117C4.87337 31.0195 4.73796 31.5781 4.80566 32.1875C4.87337 32.7969 5.12728 33.3216 5.56738 33.7617L7.24316 35.4375C7.64941 35.8776 8.15723 36.123 8.7666 36.1738C9.37598 36.2246 9.93457 36.0807 10.4424 35.7422L13.7432 33.5586C14.1156 33.7617 14.4964 33.9479 14.8857 34.1172C15.2751 34.2865 15.6559 34.4219 16.0283 34.5234L16.8408 38.3828C16.9424 38.9922 17.2301 39.4915 17.7041 39.8809C18.1781 40.2702 18.7197 40.4648 19.3291 40.4648H21.7158C22.3252 40.4648 22.8669 40.2702 23.3408 39.8809C23.8148 39.4915 24.1025 38.9922 24.2041 38.3828L24.9658 34.5234C25.3044 34.4219 25.626 34.3118 25.9307 34.1934C26.2354 34.0749 26.54 33.9479 26.8447 33.8125C27.0479 33.7109 27.1833 33.5501 27.251 33.3301C27.3187 33.11 27.3187 32.8984 27.251 32.6953ZM27.6064 25.0273C27.6742 25.0612 27.7419 25.0866 27.8096 25.1035C27.8773 25.1204 27.945 25.1289 28.0127 25.1289C28.1481 25.1289 28.2835 25.0866 28.4189 25.002C28.5544 24.9173 28.6559 24.8073 28.7236 24.6719C29.0622 24.0286 29.3161 23.3516 29.4854 22.6406C29.6546 21.9297 29.7393 21.2018 29.7393 20.457C29.7393 17.918 28.8421 15.7513 27.0479 13.957C25.2536 12.1628 23.07 11.2656 20.4971 11.2656C19.3122 11.2656 18.1611 11.4857 17.0439 11.9258C15.9268 12.3659 14.945 13.0091 14.0986 13.8555C13.9294 14.0247 13.8447 14.2194 13.8447 14.4395C13.8447 14.6595 13.9124 14.8542 14.0479 15.0234C14.2171 15.1927 14.4118 15.2773 14.6318 15.2773C14.8519 15.2773 15.0465 15.1927 15.2158 15.0234C15.9268 14.3464 16.7393 13.8216 17.6533 13.4492C18.5674 13.0768 19.5153 12.8906 20.4971 12.8906C22.596 12.8906 24.3903 13.6354 25.8799 15.125C27.3695 16.6146 28.1143 18.3919 28.1143 20.457C28.1143 21.0664 28.0465 21.6673 27.9111 22.2598C27.7757 22.8522 27.5557 23.4193 27.251 23.9609C27.1494 24.1302 27.141 24.3249 27.2256 24.5449C27.3102 24.765 27.4372 24.9258 27.6064 25.0273ZM12.8291 16.9531C12.626 16.8854 12.4229 16.9023 12.2197 17.0039C12.0166 17.1055 11.8812 17.2578 11.8135 17.4609C11.6442 17.9688 11.5173 18.4681 11.4326 18.959C11.348 19.4499 11.3057 19.9492 11.3057 20.457C11.3057 23.0299 12.2028 25.2135 13.9971 27.0078C15.7913 28.8021 17.958 29.6992 20.4971 29.6992C21.4788 29.6992 22.4352 29.5553 23.3662 29.2676C24.2972 28.9798 25.152 28.5482 25.9307 27.9727C26.0999 27.8372 26.2015 27.6595 26.2354 27.4395C26.2692 27.2194 26.2354 27.0078 26.1338 26.8047C25.9984 26.6354 25.8122 26.5339 25.5752 26.5C25.3382 26.4661 25.1351 26.5169 24.9658 26.6523C24.3226 27.0924 23.6201 27.4395 22.8584 27.6934C22.0967 27.9473 21.3096 28.0742 20.4971 28.0742C18.432 28.0742 16.6546 27.3294 15.165 25.8398C13.6755 24.3503 12.9307 22.556 12.9307 20.457C12.9307 20.0508 12.9645 19.6361 13.0322 19.2129C13.0999 18.7897 13.2015 18.3919 13.3369 18.0195C13.4046 17.7826 13.3877 17.5625 13.2861 17.3594C13.1846 17.1562 13.0322 17.0208 12.8291 16.9531ZM50.9658 36.4023L48.5791 35.8945C48.5114 35.6914 48.4352 35.4883 48.3506 35.2852C48.2659 35.082 48.1729 34.8789 48.0713 34.6758L49.3916 32.6445C49.6624 32.2383 49.7725 31.8066 49.7217 31.3496C49.6709 30.8926 49.4762 30.4948 49.1377 30.1562L48.0713 29.0391C47.7327 28.7344 47.3265 28.5566 46.8525 28.5059C46.3786 28.4551 45.9554 28.5651 45.583 28.8359L43.5518 30.1562C43.3486 30.0547 43.1455 29.9616 42.9424 29.877C42.7393 29.7923 42.5361 29.7161 42.333 29.6484L41.8252 27.2617C41.7236 26.7878 41.4951 26.4069 41.1396 26.1191C40.7842 25.8314 40.3695 25.6875 39.8955 25.6875H38.3721C37.8981 25.6875 37.4749 25.8314 37.1025 26.1191C36.7301 26.4069 36.5101 26.7878 36.4424 27.2617L35.9346 29.6484C35.7314 29.7161 35.5283 29.7923 35.3252 29.877C35.1221 29.9616 34.9189 30.0547 34.7158 30.1562L32.6846 28.8359C32.2783 28.5651 31.8467 28.4551 31.3896 28.5059C30.9326 28.5566 30.5348 28.7344 30.1963 29.0391L29.0791 30.1562C28.7744 30.4948 28.5967 30.8926 28.5459 31.3496C28.4951 31.8066 28.6051 32.2383 28.876 32.6445L30.1963 34.6758C30.0609 34.9466 29.9339 35.2259 29.8154 35.5137C29.6969 35.8014 29.6038 36.0977 29.5361 36.4023C29.4684 36.6055 29.4938 36.8086 29.6123 37.0117C29.7308 37.2148 29.8916 37.3503 30.0947 37.418C30.2979 37.4857 30.501 37.4603 30.7041 37.3418C30.9072 37.2233 31.0426 37.0625 31.1104 36.8594C31.2119 36.5208 31.3219 36.1992 31.4404 35.8945C31.5589 35.5898 31.7028 35.3021 31.8721 35.0312C31.9398 34.8958 31.9736 34.7435 31.9736 34.5742C31.9736 34.4049 31.9229 34.2695 31.8213 34.168L30.1963 31.7305C30.1624 31.6628 30.154 31.5866 30.1709 31.502C30.1878 31.4173 30.2132 31.3581 30.2471 31.3242L31.3643 30.207C31.3981 30.1732 31.4574 30.1478 31.542 30.1309C31.6266 30.1139 31.7028 30.1224 31.7705 30.1562L34.208 31.7812C34.3096 31.8828 34.445 31.9336 34.6143 31.9336C34.7835 31.9336 34.9359 31.8997 35.0713 31.832C35.3421 31.6628 35.6299 31.5189 35.9346 31.4004C36.2393 31.2819 36.5609 31.1719 36.8994 31.0703C37.0348 31.0365 37.1533 30.9603 37.2549 30.8418C37.3564 30.7233 37.4242 30.5794 37.458 30.4102L38.0166 27.5664C38.0505 27.4987 38.0928 27.4395 38.1436 27.3887C38.1943 27.3379 38.2705 27.3125 38.3721 27.3125H39.8955C39.9971 27.3125 40.0732 27.3379 40.124 27.3887C40.1748 27.4395 40.2002 27.4987 40.2002 27.5664L40.8096 30.4102C40.8434 30.5794 40.9111 30.7233 41.0127 30.8418C41.1143 30.9603 41.2327 31.0365 41.3682 31.0703C41.7067 31.1719 42.0283 31.2819 42.333 31.4004C42.6377 31.5189 42.9255 31.6628 43.1963 31.832C43.3317 31.8997 43.4756 31.9336 43.6279 31.9336C43.7803 31.9336 43.9242 31.8828 44.0596 31.7812L46.4971 30.1562C46.5648 30.1224 46.6325 30.1139 46.7002 30.1309C46.7679 30.1478 46.8356 30.1732 46.9033 30.207L48.0205 31.3242C48.0544 31.3581 48.0798 31.4173 48.0967 31.502C48.1136 31.5866 48.0882 31.6628 48.0205 31.7305L46.4463 34.168C46.3447 34.2695 46.2939 34.4049 46.2939 34.5742C46.2939 34.7435 46.3278 34.8958 46.3955 35.0312C46.5648 35.3021 46.7087 35.5898 46.8271 35.8945C46.9456 36.1992 47.0557 36.5208 47.1572 36.8594C47.1911 36.9948 47.2673 37.1133 47.3857 37.2148C47.5042 37.3164 47.6312 37.3841 47.7666 37.418L50.6611 37.9766C50.7288 38.0104 50.7881 38.0527 50.8389 38.1035C50.8896 38.1543 50.915 38.2305 50.915 38.332V39.8555C50.915 39.957 50.8896 40.0332 50.8389 40.084C50.7881 40.1348 50.7288 40.1602 50.6611 40.1602L47.7666 40.7695C47.6312 40.8034 47.5042 40.8711 47.3857 40.9727C47.2673 41.0742 47.1911 41.1927 47.1572 41.3281C47.0557 41.6667 46.9456 41.9883 46.8271 42.293C46.7087 42.5977 46.5648 42.8854 46.3955 43.1562C46.3278 43.2917 46.2939 43.4355 46.2939 43.5879C46.2939 43.7402 46.3447 43.8841 46.4463 44.0195L48.0205 46.457C48.0882 46.5247 48.1136 46.5924 48.0967 46.6602C48.0798 46.7279 48.0544 46.7956 48.0205 46.8633L46.9033 47.9805C46.8356 48.0143 46.7679 48.0397 46.7002 48.0566C46.6325 48.0736 46.5648 48.0482 46.4971 47.9805L44.0596 46.4062C43.9242 46.3047 43.7803 46.2539 43.6279 46.2539C43.4756 46.2539 43.3317 46.2878 43.1963 46.3555C42.9255 46.5247 42.6377 46.6686 42.333 46.7871C42.0283 46.9056 41.7067 47.0156 41.3682 47.1172C41.2327 47.151 41.1143 47.2272 41.0127 47.3457C40.9111 47.4642 40.8434 47.5911 40.8096 47.7266L40.2002 50.6211C40.2002 50.6888 40.1748 50.748 40.124 50.7988C40.0732 50.8496 39.9971 50.875 39.8955 50.875H38.3721C38.2705 50.875 38.1943 50.8496 38.1436 50.7988C38.0928 50.748 38.0505 50.6888 38.0166 50.6211L37.458 47.7266C37.4242 47.5911 37.3564 47.4642 37.2549 47.3457C37.1533 47.2272 37.0348 47.151 36.8994 47.1172C36.5609 47.0156 36.2393 46.9056 35.9346 46.7871C35.6299 46.6686 35.3421 46.5247 35.0713 46.3555C34.9359 46.2878 34.7835 46.2539 34.6143 46.2539C34.445 46.2539 34.3096 46.3047 34.208 46.4062L31.7705 47.9805C31.7028 48.0482 31.6266 48.0736 31.542 48.0566C31.4574 48.0397 31.3981 48.0143 31.3643 47.9805L30.2471 46.8633C30.2132 46.7956 30.1878 46.7279 30.1709 46.6602C30.154 46.5924 30.1624 46.5247 30.1963 46.457L31.8213 44.0195C31.9229 43.8841 31.9736 43.7402 31.9736 43.5879C31.9736 43.4355 31.9398 43.2917 31.8721 43.1562C31.7028 42.8854 31.5589 42.5977 31.4404 42.293C31.3219 41.9883 31.2119 41.6667 31.1104 41.3281C31.0765 41.1927 31.0003 41.0742 30.8818 40.9727C30.7633 40.8711 30.6195 40.8034 30.4502 40.7695L27.6064 40.1602C27.5387 40.1602 27.4795 40.1348 27.4287 40.084C27.3779 40.0332 27.3525 39.957 27.3525 39.8555V38.332C27.3525 38.2305 27.3779 38.1543 27.4287 38.1035C27.4795 38.0527 27.5387 38.0104 27.6064 37.9766H27.8096C28.0127 37.9089 28.182 37.7819 28.3174 37.5957C28.4528 37.4095 28.4867 37.2148 28.4189 37.0117C28.3851 36.7747 28.2751 36.597 28.0889 36.4785C27.9027 36.36 27.6911 36.3177 27.4541 36.3516L27.3018 36.4023C26.8278 36.4701 26.4469 36.6901 26.1592 37.0625C25.8714 37.4349 25.7275 37.8581 25.7275 38.332V39.8555C25.7275 40.3294 25.8714 40.7441 26.1592 41.0996C26.4469 41.4551 26.8278 41.6836 27.3018 41.7852L29.6885 42.293C29.7562 42.4961 29.8324 42.6992 29.917 42.9023C30.0016 43.1055 30.0947 43.3086 30.1963 43.5117L28.876 45.543C28.6051 45.9154 28.4951 46.3385 28.5459 46.8125C28.5967 47.2865 28.7744 47.6927 29.0791 48.0312L30.1963 49.0977C30.5348 49.4362 30.9326 49.6309 31.3896 49.6816C31.8467 49.7324 32.2783 49.6224 32.6846 49.3516L34.7158 48.0312C34.9189 48.1328 35.1221 48.2259 35.3252 48.3105C35.5283 48.3952 35.7314 48.4714 35.9346 48.5391L36.4424 50.9258C36.5101 51.3659 36.7301 51.7383 37.1025 52.043C37.4749 52.3477 37.8981 52.5 38.3721 52.5H39.8955C40.3695 52.5 40.7842 52.3477 41.1396 52.043C41.4951 51.7383 41.7236 51.3659 41.8252 50.9258L42.333 48.5391C42.5361 48.4714 42.7393 48.3952 42.9424 48.3105C43.1455 48.2259 43.3486 48.1328 43.5518 48.0312L45.583 49.3516C45.9554 49.6224 46.3786 49.7324 46.8525 49.6816C47.3265 49.6309 47.7327 49.4362 48.0713 49.0977L49.1377 48.0312C49.4762 47.6927 49.6709 47.2865 49.7217 46.8125C49.7725 46.3385 49.6624 45.9154 49.3916 45.543L48.0713 43.5117C48.1729 43.3086 48.2659 43.1055 48.3506 42.9023C48.4352 42.6992 48.5114 42.4961 48.5791 42.293L50.9658 41.7852C51.4059 41.6836 51.7783 41.4551 52.083 41.0996C52.3877 40.7441 52.54 40.3294 52.54 39.8555V38.332C52.54 37.8581 52.3877 37.4349 52.083 37.0625C51.7783 36.6901 51.4059 36.4701 50.9658 36.4023ZM39.1338 36.1484C39.9463 36.1484 40.6403 36.4362 41.2158 37.0117C41.7913 37.5872 42.0791 38.2812 42.0791 39.0938C42.0791 39.3307 42.1637 39.5254 42.333 39.6777C42.5023 39.8301 42.6885 39.9062 42.8916 39.9062C43.1286 39.9062 43.3232 39.8301 43.4756 39.6777C43.6279 39.5254 43.7041 39.3307 43.7041 39.0938C43.7041 37.8073 43.2555 36.7155 42.3584 35.8184C41.4613 34.9212 40.3864 34.4727 39.1338 34.4727C37.8473 34.4727 36.7555 34.9212 35.8584 35.8184C34.9613 36.7155 34.5127 37.8073 34.5127 39.0938C34.5127 40.3464 34.9613 41.4212 35.8584 42.3184C36.7555 43.2155 37.8473 43.6641 39.1338 43.6641C39.6416 43.6641 40.1325 43.5879 40.6064 43.4355C41.0804 43.2832 41.5205 43.0547 41.9268 42.75C42.1299 42.6146 42.2399 42.4284 42.2568 42.1914C42.2738 41.9544 42.2145 41.7513 42.0791 41.582C41.9437 41.4128 41.7659 41.3112 41.5459 41.2773C41.3258 41.2435 41.1143 41.2943 40.9111 41.4297C40.6742 41.6328 40.4033 41.7852 40.0986 41.8867C39.7939 41.9883 39.4723 42.0391 39.1338 42.0391C38.3213 42.0391 37.6273 41.7513 37.0518 41.1758C36.4762 40.6003 36.1885 39.9062 36.1885 39.0938C36.1885 38.2812 36.4762 37.5872 37.0518 37.0117C37.6273 36.4362 38.3213 36.1484 39.1338 36.1484ZM25.5244 20.457C25.5244 19.1029 25.0335 17.9349 24.0518 16.9531C23.07 15.9714 21.8851 15.4805 20.4971 15.4805C19.1429 15.4805 17.9749 15.9714 16.9932 16.9531C16.0114 17.9349 15.5205 19.1029 15.5205 20.457C15.5205 21.8451 16.0114 23.0299 16.9932 24.0117C17.9749 24.9935 19.1429 25.4844 20.4971 25.4844C21.8851 25.4844 23.07 24.9935 24.0518 24.0117C25.0335 23.0299 25.5244 21.8451 25.5244 20.457ZM17.1455 20.457C17.1455 19.543 17.4756 18.7559 18.1357 18.0957C18.7959 17.4355 19.583 17.1055 20.4971 17.1055C21.445 17.1055 22.249 17.4355 22.9092 18.0957C23.5693 18.7559 23.8994 19.543 23.8994 20.457C23.8994 21.4049 23.5693 22.209 22.9092 22.8691C22.249 23.5293 21.445 23.8594 20.4971 23.8594C19.583 23.8594 18.7959 23.5293 18.1357 22.8691C17.4756 22.209 17.1455 21.4049 17.1455 20.457Z" fill="white"/>
</g>
<defs>
<clipPath id="clip0_76_1529">
<rect width="52" height="52" fill="white" transform="matrix(1 0 0 -1 0.540039 52.5)"/>
</clipPath>
</defs>
</svg>
