<svg width="53" height="53" viewBox="0 0 53 53" fill="none" xmlns="http://www.w3.org/2000/svg">
<g clip-path="url(#clip0_76_1535)">
<path d="M18.5835 7.60938H28.4858C28.7905 7.60938 29.0868 7.5332 29.3745 7.38086C29.6623 7.22852 29.8908 7.03386 30.0601 6.79688C30.2293 6.52604 30.3309 6.22982 30.3647 5.9082C30.3986 5.58659 30.3647 5.27344 30.2632 4.96875L28.9429 1.71875C28.8075 1.34636 28.5789 1.05013 28.2573 0.830078C27.9357 0.610027 27.5718 0.5 27.1655 0.5H19.9038C19.4976 0.5 19.1336 0.610027 18.812 0.830078C18.4904 1.05013 18.2619 1.34636 18.1265 1.71875L16.8062 4.96875C16.6707 5.27344 16.62 5.58659 16.6538 5.9082C16.6877 6.22982 16.8062 6.52604 17.0093 6.79688C17.1785 7.03386 17.3986 7.22852 17.6694 7.38086C17.9403 7.5332 18.245 7.60938 18.5835 7.60938ZM18.3296 5.57812L19.6499 2.32812C19.6499 2.26042 19.6753 2.20964 19.7261 2.17578C19.7769 2.14193 19.8361 2.125 19.9038 2.125H27.1655C27.2332 2.125 27.284 2.14193 27.3179 2.17578C27.3517 2.20964 27.3856 2.26042 27.4194 2.32812L28.7397 5.57812C28.7736 5.64583 28.7821 5.70508 28.7651 5.75586C28.7482 5.80664 28.7228 5.83203 28.689 5.83203C28.689 5.86589 28.672 5.89974 28.6382 5.93359C28.6043 5.96745 28.5535 5.98438 28.4858 5.98438H18.5835C18.5158 5.98438 18.465 5.96745 18.4312 5.93359C18.3973 5.89974 18.3634 5.86589 18.3296 5.83203C18.3296 5.83203 18.3211 5.80664 18.3042 5.75586C18.2873 5.70508 18.2957 5.64583 18.3296 5.57812ZM18.8882 12.2812C18.8882 12.0443 18.8035 11.8496 18.6343 11.6973C18.465 11.5449 18.2788 11.4688 18.0757 11.4688H10.4077C10.1707 11.4688 9.96761 11.5449 9.79834 11.6973C9.62907 11.8496 9.54443 12.0443 9.54443 12.2812C9.54443 12.4844 9.62907 12.6706 9.79834 12.8398C9.96761 13.0091 10.1707 13.0938 10.4077 13.0938H18.0757C18.2788 13.0938 18.465 13.0091 18.6343 12.8398C18.8035 12.6706 18.8882 12.4844 18.8882 12.2812ZM51.2866 18.4258L49.0015 17.9688C48.9338 17.7656 48.866 17.5625 48.7983 17.3594C48.7306 17.1562 48.646 16.9701 48.5444 16.8008L49.814 14.8711C50.0509 14.4987 50.1525 14.084 50.1187 13.627C50.0848 13.1699 49.8986 12.7721 49.5601 12.4336L48.4937 11.418C48.2228 11.1133 47.8758 10.9271 47.4526 10.8594C47.0295 10.7917 46.6317 10.8594 46.2593 11.0625V6.79688C46.2593 5.95052 45.9631 5.23958 45.3706 4.66406C44.7782 4.08854 44.0588 3.80078 43.2124 3.80078H32.2944C32.0575 3.80078 31.8628 3.87695 31.7104 4.0293C31.5581 4.18164 31.4819 4.3763 31.4819 4.61328C31.4819 4.85026 31.5581 5.04492 31.7104 5.19727C31.8628 5.34961 32.0575 5.42578 32.2944 5.42578H39.1499V8.16797C38.7098 8.16797 38.3205 8.31185 37.9819 8.59961C37.6434 8.88737 37.4233 9.2513 37.3218 9.69141L36.8647 11.9766C36.6616 12.0443 36.467 12.112 36.2808 12.1797C36.0946 12.2474 35.8999 12.332 35.6968 12.4336L33.8179 11.1641C33.4116 10.9271 32.98 10.8255 32.5229 10.8594C32.0659 10.8932 31.6851 11.0794 31.3804 11.418L30.314 12.4336C30.0093 12.7721 29.8315 13.1699 29.7808 13.627C29.73 14.084 29.84 14.4987 30.1108 14.8711L31.3804 16.8008C31.2788 16.9701 31.1857 17.1562 31.1011 17.3594C31.0164 17.5625 30.9403 17.7656 30.8726 17.9688L28.6382 18.4258C28.1981 18.4935 27.8257 18.7051 27.521 19.0605C27.2163 19.416 27.064 19.8307 27.064 20.3047V21.7773C27.064 22.2174 27.2163 22.6152 27.521 22.9707C27.8257 23.3262 28.1981 23.5547 28.6382 23.6562L30.8726 24.1133C30.9403 24.3164 31.0164 24.5111 31.1011 24.6973C31.1857 24.8835 31.2788 25.0781 31.3804 25.2812L30.1108 27.1602C29.84 27.5664 29.73 27.9896 29.7808 28.4297C29.8315 28.8698 30.0093 29.2591 30.314 29.5977L31.3804 30.6641C31.6851 30.9688 32.0659 31.1465 32.5229 31.1973C32.98 31.248 33.4116 31.138 33.8179 30.8672L35.6968 29.5977C35.8999 29.6992 36.0946 29.7923 36.2808 29.877C36.467 29.9616 36.6616 30.0378 36.8647 30.1055L37.3218 32.3398C37.4233 32.7799 37.6519 33.1523 38.0073 33.457C38.3628 33.7617 38.7606 33.9141 39.2007 33.9141H40.6733C41.1473 33.9141 41.562 33.7617 41.9175 33.457C42.2729 33.1523 42.4845 32.7799 42.5522 32.3398L43.0093 30.1055C43.2124 30.0378 43.4155 29.9616 43.6187 29.877C43.8218 29.7923 44.008 29.6992 44.1772 29.5977L46.1069 30.8672C46.4793 31.138 46.894 31.248 47.3511 31.1973C47.8081 31.1465 48.189 30.9688 48.4937 30.6641L49.5601 29.5977C49.8986 29.2591 50.0848 28.8698 50.1187 28.4297C50.1525 27.9896 50.0509 27.5664 49.814 27.1602L48.5444 25.2812C48.646 25.0781 48.7306 24.8835 48.7983 24.6973C48.866 24.5111 48.9338 24.3164 49.0015 24.1133L51.2866 23.6562C51.7267 23.5547 52.0907 23.3262 52.3784 22.9707C52.6662 22.6152 52.8101 22.2174 52.8101 21.7773V20.3047C52.8101 19.8307 52.6662 19.416 52.3784 19.0605C52.0907 18.7051 51.7267 18.4935 51.2866 18.4258ZM40.7749 5.42578H43.2124C43.6187 5.42578 43.9487 5.5612 44.2026 5.83203C44.4565 6.10286 44.5835 6.42448 44.5835 6.79688V12.1797L44.1772 12.4336C44.008 12.332 43.8218 12.2474 43.6187 12.1797C43.4155 12.112 43.2124 12.0443 43.0093 11.9766L42.5522 9.69141C42.4845 9.2513 42.2814 8.88737 41.9429 8.59961C41.6043 8.31185 41.215 8.16797 40.7749 8.16797V5.42578ZM51.1851 21.7773C51.1851 21.8451 51.1597 21.9043 51.1089 21.9551C51.0581 22.0059 50.9989 22.0312 50.9312 22.0312L48.2397 22.5898C48.0705 22.6237 47.9266 22.6914 47.8081 22.793C47.6896 22.8945 47.6134 23.013 47.5796 23.1484C47.5119 23.4531 47.4188 23.7578 47.3003 24.0625C47.1818 24.3672 47.0379 24.6549 46.8687 24.9258C46.8009 25.0612 46.7671 25.2051 46.7671 25.3574C46.7671 25.5098 46.8179 25.6536 46.9194 25.7891L48.4429 28.0742C48.4767 28.1419 48.4937 28.2096 48.4937 28.2773C48.4937 28.3451 48.4598 28.3958 48.3921 28.4297L47.3765 29.4961C47.3088 29.5299 47.241 29.5553 47.1733 29.5723C47.1056 29.5892 47.0549 29.5638 47.021 29.4961L44.6851 27.9727C44.5496 27.9049 44.4058 27.8626 44.2534 27.8457C44.1011 27.8288 43.9572 27.8542 43.8218 27.9219C43.5509 28.0911 43.2716 28.235 42.9839 28.3535C42.6961 28.472 42.3999 28.582 42.0952 28.6836C41.9259 28.7174 41.7905 28.7936 41.689 28.9121C41.5874 29.0306 41.5197 29.1576 41.4858 29.293L40.978 32.0352C40.9442 32.1029 40.9019 32.1536 40.8511 32.1875C40.8003 32.2214 40.741 32.2383 40.6733 32.2383H39.2007C39.133 32.2383 39.0737 32.2214 39.0229 32.1875C38.9722 32.1536 38.9468 32.1029 38.9468 32.0352L38.3882 29.293C38.3543 29.1576 38.2866 29.0306 38.1851 28.9121C38.0835 28.7936 37.9481 28.7174 37.7788 28.6836C37.508 28.582 37.2202 28.472 36.9155 28.3535C36.6108 28.235 36.3231 28.0911 36.0522 27.9219C35.9845 27.888 35.9168 27.8626 35.8491 27.8457C35.7814 27.8288 35.7137 27.8203 35.646 27.8203C35.5783 27.8203 35.5021 27.8372 35.4175 27.8711C35.3328 27.9049 35.2567 27.9388 35.189 27.9727L32.9038 29.4961C32.8361 29.5638 32.7684 29.5892 32.7007 29.5723C32.633 29.5553 32.5822 29.5299 32.5483 29.4961L31.4819 28.4297C31.4481 28.3958 31.4227 28.3451 31.4058 28.2773C31.3888 28.2096 31.3973 28.1419 31.4312 28.0742L33.0054 25.7891C33.0731 25.6536 33.1154 25.5098 33.1323 25.3574C33.1493 25.2051 33.1069 25.0612 33.0054 24.9258C32.87 24.6549 32.743 24.3672 32.6245 24.0625C32.506 23.7578 32.396 23.4531 32.2944 23.1484C32.2606 23.013 32.1844 22.8945 32.0659 22.793C31.9474 22.6914 31.8205 22.6237 31.6851 22.5898L28.9429 22.0312C28.8752 22.0312 28.8244 22.0059 28.7905 21.9551C28.7567 21.9043 28.7397 21.8451 28.7397 21.7773V20.3047C28.7397 20.237 28.7567 20.1777 28.7905 20.127C28.8244 20.0762 28.8752 20.0339 28.9429 20L31.6851 19.4922C31.8205 19.4583 31.9474 19.3822 32.0659 19.2637C32.1844 19.1452 32.2606 19.0182 32.2944 18.8828C32.396 18.5781 32.506 18.2819 32.6245 17.9941C32.743 17.7064 32.87 17.4271 33.0054 17.1562C33.1069 17.0208 33.1493 16.877 33.1323 16.7246C33.1154 16.5723 33.0731 16.4284 33.0054 16.293L31.4312 13.957C31.3973 13.9232 31.3888 13.8724 31.4058 13.8047C31.4227 13.737 31.4481 13.6693 31.4819 13.6016L32.5483 12.5859C32.5822 12.5182 32.633 12.4844 32.7007 12.4844C32.7684 12.4844 32.8361 12.5013 32.9038 12.5352L35.189 14.0586C35.3244 14.1602 35.4683 14.2109 35.6206 14.2109C35.7729 14.2109 35.9168 14.1771 36.0522 14.1094C36.3231 13.9401 36.6108 13.7962 36.9155 13.6777C37.2202 13.5592 37.508 13.4661 37.7788 13.3984C37.9481 13.3307 38.0835 13.2461 38.1851 13.1445C38.2866 13.043 38.3543 12.9076 38.3882 12.7383L38.9468 10.0469C38.9468 9.97917 38.9722 9.91992 39.0229 9.86914C39.0737 9.81836 39.133 9.79297 39.2007 9.79297H40.6733C40.741 9.79297 40.8003 9.81836 40.8511 9.86914C40.9019 9.91992 40.9442 9.97917 40.978 10.0469L41.4858 12.7383C41.5197 12.9076 41.5874 13.043 41.689 13.1445C41.7905 13.2461 41.9259 13.3307 42.0952 13.3984C42.3999 13.4661 42.6961 13.5592 42.9839 13.6777C43.2716 13.7962 43.5509 13.9401 43.8218 14.1094C43.9572 14.1771 44.1011 14.2109 44.2534 14.2109C44.4058 14.2109 44.5496 14.1602 44.6851 14.0586L47.021 12.5352C47.0549 12.5013 47.1056 12.4844 47.1733 12.4844C47.241 12.4844 47.3088 12.5182 47.3765 12.5859L48.3921 13.6016C48.4598 13.6693 48.4937 13.737 48.4937 13.8047C48.4937 13.8724 48.4767 13.9232 48.4429 13.957L46.9194 16.293C46.8179 16.4284 46.7671 16.5723 46.7671 16.7246C46.7671 16.877 46.8009 17.0208 46.8687 17.1562C47.0379 17.4271 47.1818 17.7064 47.3003 17.9941C47.4188 18.2819 47.5119 18.5781 47.5796 18.8828C47.6134 19.0182 47.6896 19.1452 47.8081 19.2637C47.9266 19.3822 48.0705 19.4583 48.2397 19.4922L50.9312 20C50.9989 20.0339 51.0581 20.0762 51.1089 20.127C51.1597 20.1777 51.1851 20.237 51.1851 20.3047V21.7773ZM39.9624 16.5977C38.7437 16.5977 37.6942 17.0293 36.814 17.8926C35.9338 18.7559 35.4937 19.7969 35.4937 21.0156C35.4937 22.2344 35.9338 23.2839 36.814 24.1641C37.6942 25.0443 38.7437 25.4844 39.9624 25.4844C40.1655 25.4844 40.3517 25.3997 40.521 25.2305C40.6903 25.0612 40.7749 24.8581 40.7749 24.6211C40.7749 24.418 40.6903 24.2318 40.521 24.0625C40.3517 23.8932 40.1655 23.8086 39.9624 23.8086C39.1838 23.8086 38.5236 23.5378 37.9819 22.9961C37.4403 22.4544 37.1694 21.7943 37.1694 21.0156C37.1694 20.237 37.4403 19.5768 37.9819 19.0352C38.5236 18.4935 39.1838 18.2227 39.9624 18.2227C40.7072 18.2227 41.3589 18.4935 41.9175 19.0352C42.4761 19.5768 42.7554 20.237 42.7554 21.0156C42.7554 21.3203 42.7046 21.6165 42.603 21.9043C42.5015 22.1921 42.3491 22.4714 42.146 22.7422C42.0106 22.9115 41.9598 23.1061 41.9937 23.3262C42.0275 23.5462 42.1291 23.724 42.2983 23.8594C42.5015 23.9948 42.7131 24.0456 42.9331 24.0117C43.1532 23.9779 43.3309 23.8763 43.4663 23.707C43.771 23.3346 43.9995 22.9199 44.1519 22.4629C44.3042 22.0059 44.3804 21.5234 44.3804 21.0156C44.3804 19.7969 43.9487 18.7559 43.0854 17.8926C42.2222 17.0293 41.1812 16.5977 39.9624 16.5977ZM10.4077 14.7188C10.1707 14.7188 9.96761 14.8034 9.79834 14.9727C9.62907 15.1419 9.54443 15.3281 9.54443 15.5312C9.54443 15.7682 9.62907 15.9714 9.79834 16.1406C9.96761 16.3099 10.1707 16.3945 10.4077 16.3945H15.8413C16.0783 16.3945 16.2814 16.3099 16.4507 16.1406C16.62 15.9714 16.7046 15.7682 16.7046 15.5312C16.7046 15.3281 16.62 15.1419 16.4507 14.9727C16.2814 14.8034 16.0783 14.7188 15.8413 14.7188H10.4077ZM45.396 32.2383C45.1929 32.2383 45.0067 32.3229 44.8374 32.4922C44.6681 32.6615 44.5835 32.8477 44.5835 33.0508V49.5039C44.5835 49.8763 44.4565 50.1979 44.2026 50.4688C43.9487 50.7396 43.6187 50.875 43.2124 50.875H3.80615C3.43376 50.875 3.11214 50.7396 2.84131 50.4688C2.57048 50.1979 2.43506 49.8763 2.43506 49.5039V6.79688C2.43506 6.42448 2.57048 6.10286 2.84131 5.83203C3.11214 5.5612 3.43376 5.42578 3.80615 5.42578H6.29443V45.0859C6.29443 45.6276 6.48063 46.0846 6.85303 46.457C7.22542 46.8294 7.68245 47.0156 8.22412 47.0156H31.1772C31.4142 47.0156 31.6089 46.9395 31.7612 46.7871C31.9136 46.6348 31.9897 46.4401 31.9897 46.2031C31.9897 45.9661 31.9136 45.7715 31.7612 45.6191C31.6089 45.4668 31.4142 45.3906 31.1772 45.3906H8.22412C8.12256 45.3906 8.04639 45.3652 7.99561 45.3145C7.94482 45.2637 7.91943 45.1875 7.91943 45.0859V42.6484H39.1499V45.0859C39.1499 45.1875 39.116 45.2637 39.0483 45.3145C38.9806 45.3652 38.9129 45.3906 38.8452 45.3906H34.478C34.241 45.3906 34.0464 45.4668 33.894 45.6191C33.7417 45.7715 33.6655 45.9661 33.6655 46.2031C33.6655 46.4401 33.7417 46.6348 33.894 46.7871C34.0464 46.9395 34.241 47.0156 34.478 47.0156H38.8452C39.3869 47.0156 39.8439 46.8294 40.2163 46.457C40.5887 46.0846 40.7749 45.6276 40.7749 45.0859V36.3516C40.7749 36.1146 40.6903 35.9199 40.521 35.7676C40.3517 35.6152 40.1655 35.5391 39.9624 35.5391C39.7254 35.5391 39.5308 35.6152 39.3784 35.7676C39.2261 35.9199 39.1499 36.1146 39.1499 36.3516V41.0234H7.91943V32.7969H11.5249C11.728 32.7969 11.9227 32.8392 12.1089 32.9238C12.2951 33.0085 12.4559 33.1354 12.5913 33.3047L15.6382 37.1133C15.9429 37.4857 16.2983 37.7734 16.7046 37.9766C17.1108 38.1797 17.5509 38.2812 18.0249 38.2812H23.8647C24.3048 38.2812 24.7196 38.1882 25.1089 38.002C25.4982 37.8158 25.8452 37.5534 26.1499 37.2148L30.2124 32.4922C30.3817 32.3229 30.4578 32.1283 30.4409 31.9082C30.424 31.6882 30.314 31.5104 30.1108 31.375C29.9416 31.2057 29.7469 31.1296 29.5269 31.1465C29.3068 31.1634 29.1291 31.2565 28.9937 31.4258L24.8804 36.1484C24.745 36.3177 24.5926 36.4362 24.4233 36.5039C24.2541 36.5716 24.0679 36.6055 23.8647 36.6055H18.0249C17.8218 36.6055 17.6271 36.5632 17.4409 36.4785C17.2547 36.3939 17.0939 36.2669 16.9585 36.0977L13.8608 32.2891C13.59 31.9167 13.2515 31.6374 12.8452 31.4512C12.439 31.265 11.9989 31.1719 11.5249 31.1719H7.91943V21.8281H24.0171C24.2541 21.8281 24.4487 21.752 24.6011 21.5996C24.7534 21.4473 24.8296 21.2526 24.8296 21.0156C24.8296 20.8125 24.7534 20.6263 24.6011 20.457C24.4487 20.2878 24.2541 20.2031 24.0171 20.2031H7.91943V5.42578H14.7749C15.0119 5.42578 15.2065 5.34961 15.3589 5.19727C15.5112 5.04492 15.5874 4.85026 15.5874 4.61328C15.5874 4.3763 15.5112 4.18164 15.3589 4.0293C15.2065 3.87695 15.0119 3.80078 14.7749 3.80078H3.80615C2.99365 3.80078 2.29118 4.08854 1.69873 4.66406C1.10628 5.23958 0.810059 5.95052 0.810059 6.79688V49.5039C0.810059 50.3164 1.10628 51.0189 1.69873 51.6113C2.29118 52.2038 2.99365 52.5 3.80615 52.5H43.2124C44.0588 52.5 44.7782 52.2038 45.3706 51.6113C45.9631 51.0189 46.2593 50.3164 46.2593 49.5039V33.0508C46.2593 32.8477 46.1746 32.6615 46.0054 32.4922C45.8361 32.3229 45.633 32.2383 45.396 32.2383Z" fill="white"/>
</g>
<defs>
<clipPath id="clip0_76_1535">
<rect width="52" height="52" fill="white" transform="matrix(1 0 0 -1 0.810059 52.5)"/>
</clipPath>
</defs>
</svg>
