<svg width="53" height="53" viewBox="0 0 53 53" fill="none" xmlns="http://www.w3.org/2000/svg">
<g clip-path="url(#clip0_76_1523)">
<path d="M27.3872 47.5742H20.1763C19.533 47.5742 18.949 47.7604 18.4243 48.1328C17.8996 48.5052 17.5356 49.013 17.3325 49.6562L17.2309 49.9102C17.1294 50.181 16.9601 50.4095 16.7231 50.5957C16.4862 50.7819 16.2153 50.875 15.9106 50.875H10.4263C9.51219 50.875 8.72508 50.5788 8.06493 49.9863C7.40477 49.3939 7.00698 48.6576 6.87157 47.7773L3.11375 18.5781H10.9341C11.171 18.5781 11.3657 18.4935 11.5181 18.3242C11.6704 18.1549 11.7466 17.9688 11.7466 17.7656C11.7466 17.5286 11.6704 17.3255 11.5181 17.1562C11.3657 16.987 11.171 16.9023 10.9341 16.9023H2.19969C2.09813 16.9023 2.02196 16.877 1.97118 16.8262C1.92039 16.7754 1.895 16.7161 1.895 16.6484V13.0938H38.3052C38.5421 13.0938 38.7368 13.0091 38.8891 12.8398C39.0415 12.6706 39.1177 12.4844 39.1177 12.2812C39.1177 12.0443 39.0415 11.8496 38.8891 11.6973C38.7368 11.5449 38.5421 11.4688 38.3052 11.4688H1.895V10.0977C1.895 9.11589 2.24201 8.278 2.93602 7.58398C3.63003 6.88997 4.46792 6.54297 5.44969 6.54297H7.68407C7.88719 6.54297 8.07339 6.45833 8.24266 6.28906C8.41193 6.11979 8.49657 5.91667 8.49657 5.67969C8.49657 5.47656 8.41193 5.29036 8.24266 5.12109C8.07339 4.95182 7.88719 4.86719 7.68407 4.86719H5.44969C4.02782 4.86719 2.80907 5.375 1.79344 6.39062C0.777817 7.40625 0.270004 8.64193 0.270004 10.0977V16.6484C0.270004 17.0547 0.38003 17.4102 0.600082 17.7148C0.820134 18.0195 1.09943 18.2565 1.43797 18.4258L5.24657 47.9805C5.41584 49.2669 5.99136 50.3418 6.97313 51.2051C7.9549 52.0684 9.10594 52.5 10.4263 52.5H15.9106C16.5877 52.5 17.1886 52.3138 17.7134 51.9414C18.2381 51.569 18.602 51.0612 18.8052 50.418L18.9067 50.1641C18.9744 49.8594 19.1268 49.6224 19.3638 49.4531C19.6007 49.2839 19.8716 49.1992 20.1763 49.1992H27.3872C27.5903 49.1992 27.7765 49.123 27.9458 48.9707C28.1151 48.8184 28.1997 48.6237 28.1997 48.3867C28.1997 48.1497 28.1151 47.9551 27.9458 47.8027C27.7765 47.6504 27.5903 47.5742 27.3872 47.5742ZM10.9341 8.72656C11.171 8.72656 11.3657 8.64193 11.5181 8.47266C11.6704 8.30339 11.7466 8.11719 11.7466 7.91406V3.49609C11.7466 3.1237 11.882 2.80208 12.1528 2.53125C12.4236 2.26042 12.7453 2.125 13.1177 2.125H21.9028C22.2752 2.125 22.5968 2.26042 22.8677 2.53125C23.1385 2.80208 23.2739 3.1237 23.2739 3.49609V7.91406C23.2739 8.11719 23.3501 8.30339 23.5024 8.47266C23.6548 8.64193 23.8494 8.72656 24.0864 8.72656C24.3234 8.72656 24.5181 8.64193 24.6704 8.47266C24.8227 8.30339 24.8989 8.11719 24.8989 7.91406V6.54297H27.6411V7.91406C27.6411 8.11719 27.7173 8.30339 27.8696 8.47266C28.022 8.64193 28.2166 8.72656 28.4536 8.72656C28.6906 8.72656 28.8852 8.64193 29.0376 8.47266C29.1899 8.30339 29.2661 8.11719 29.2661 7.91406V3.49609C29.2661 3.1237 29.4015 2.80208 29.6723 2.53125C29.9432 2.26042 30.2648 2.125 30.6372 2.125H39.4223C39.7947 2.125 40.1164 2.26042 40.3872 2.53125C40.658 2.80208 40.7934 3.1237 40.7934 3.49609V7.91406C40.7934 8.11719 40.8696 8.30339 41.022 8.47266C41.1743 8.64193 41.369 8.72656 41.6059 8.72656C41.8429 8.72656 42.0376 8.64193 42.1899 8.47266C42.3423 8.30339 42.4184 8.11719 42.4184 7.91406V3.49609C42.4184 2.68359 42.1222 1.98112 41.5298 1.38867C40.9373 0.796223 40.2348 0.5 39.4223 0.5H30.6372C29.8247 0.5 29.1222 0.796223 28.5298 1.38867C27.9373 1.98112 27.6411 2.68359 27.6411 3.49609V4.86719H24.8989V3.49609C24.8989 2.68359 24.6027 1.98112 24.0102 1.38867C23.4178 0.796223 22.7153 0.5 21.9028 0.5H13.1177C12.3052 0.5 11.6027 0.796223 11.0102 1.38867C10.4178 1.98112 10.1216 2.68359 10.1216 3.49609V7.91406C10.1216 8.11719 10.1977 8.30339 10.3501 8.47266C10.5024 8.64193 10.6971 8.72656 10.9341 8.72656ZM36.9341 35.1328C36.9341 34.5234 36.8494 33.931 36.6802 33.3555C36.5109 32.7799 36.2739 32.2383 35.9692 31.7305C35.8338 31.5612 35.6561 31.4427 35.436 31.375C35.216 31.3073 35.0213 31.3411 34.852 31.4766C34.6489 31.612 34.522 31.7897 34.4712 32.0098C34.4204 32.2298 34.4627 32.4245 34.5981 32.5938C34.8351 33 35.0128 33.4147 35.1313 33.8379C35.2498 34.2611 35.3091 34.6927 35.3091 35.1328C35.3091 36.4531 34.8436 37.5788 33.9126 38.5098C32.9816 39.4408 31.8559 39.9062 30.5356 39.9062H29.2661V37.1641H30.5356C31.0773 37.1641 31.5513 36.9694 31.9575 36.5801C32.3638 36.1908 32.5669 35.7083 32.5669 35.1328C32.5669 34.9297 32.5415 34.7435 32.4907 34.5742C32.4399 34.4049 32.3638 34.2357 32.2622 34.0664L28.3013 27.7188C28.0981 27.4141 27.8442 27.1771 27.5395 27.0078C27.2348 26.8385 26.9132 26.7539 26.5747 26.7539H25.9653C25.6268 26.7539 25.3052 26.8385 25.0005 27.0078C24.6958 27.1771 24.4419 27.4141 24.2388 27.7188L20.2778 34.0664C20.1763 34.2357 20.1001 34.4049 20.0493 34.5742C19.9985 34.7435 19.9731 34.9297 19.9731 35.1328C19.9731 35.7083 20.1763 36.1908 20.5825 36.5801C20.9888 36.9694 21.4627 37.1641 22.0044 37.1641H23.2739V39.9062H22.0044C20.6841 39.9062 19.5584 39.4408 18.6274 38.5098C17.6964 37.5788 17.2309 36.4531 17.2309 35.1328C17.2309 34.6927 17.2902 34.2611 17.4087 33.8379C17.5272 33.4147 17.7049 33 17.9419 32.5938L20.1255 29.1406C20.2609 28.9375 20.3032 28.7259 20.2524 28.5059C20.2016 28.2858 20.0747 28.1081 19.8716 27.9727C19.7023 27.8711 19.4992 27.8457 19.2622 27.8965C19.0252 27.9473 18.8559 28.0742 18.7544 28.2773L16.5708 31.7305C16.2661 32.2383 16.0291 32.7799 15.8598 33.3555C15.6906 33.931 15.6059 34.5234 15.6059 35.1328C15.6059 36.8932 16.2322 38.3997 17.4848 39.6523C18.7375 40.9049 20.244 41.5312 22.0044 41.5312H24.0864C24.3234 41.5312 24.5181 41.4551 24.6704 41.3027C24.8227 41.1504 24.8989 40.9557 24.8989 40.7188V36.3516C24.8989 36.1146 24.8227 35.9199 24.6704 35.7676C24.5181 35.6152 24.3234 35.5391 24.0864 35.5391H22.0044C21.9028 35.5391 21.8097 35.4967 21.7251 35.4121C21.6404 35.3275 21.5981 35.2344 21.5981 35.1328C21.5981 35.099 21.6066 35.0651 21.6235 35.0312C21.6404 34.9974 21.6658 34.9635 21.6997 34.9297L25.6098 28.582C25.6776 28.5482 25.7368 28.5143 25.7876 28.4805C25.8384 28.4466 25.8976 28.4297 25.9653 28.4297H26.5747C26.6424 28.4297 26.7016 28.4466 26.7524 28.4805C26.8032 28.5143 26.8625 28.5482 26.9302 28.582L30.8403 34.9297C30.8742 34.9635 30.8996 34.9974 30.9165 35.0312C30.9334 35.0651 30.9419 35.099 30.9419 35.1328C30.9419 35.2344 30.8996 35.3275 30.8149 35.4121C30.7303 35.4967 30.6372 35.5391 30.5356 35.5391H28.4536C28.2166 35.5391 28.022 35.6152 27.8696 35.7676C27.7173 35.9199 27.6411 36.1146 27.6411 36.3516V40.7188C27.6411 40.9557 27.7173 41.1504 27.8696 41.3027C28.022 41.4551 28.2166 41.5312 28.4536 41.5312H30.5356C32.296 41.5312 33.8026 40.9049 35.0552 39.6523C36.3078 38.3997 36.9341 36.8932 36.9341 35.1328ZM21.9028 26.2969C22.3429 25.5859 22.9269 25.0273 23.6548 24.6211C24.3826 24.2148 25.1528 24.0117 25.9653 24.0117H26.5747C27.3872 24.0117 28.1574 24.2148 28.8852 24.6211C29.6131 25.0273 30.1971 25.5859 30.6372 26.2969L32.77 29.6992C32.8377 29.8346 32.9393 29.9362 33.0747 30.0039C33.2101 30.0716 33.3455 30.1055 33.4809 30.1055C33.5486 30.1055 33.6164 30.097 33.6841 30.0801C33.7518 30.0632 33.8195 30.0208 33.8872 29.9531C34.0903 29.8516 34.2173 29.6908 34.2681 29.4707C34.3188 29.2507 34.2765 29.0391 34.1411 28.8359L32.0083 25.4336C31.4328 24.4857 30.6626 23.7409 29.6977 23.1992C28.7329 22.6576 27.6919 22.3867 26.5747 22.3867H25.9653C24.8481 22.3867 23.8071 22.6576 22.8423 23.1992C21.8774 23.7409 21.1072 24.4857 20.5317 25.4336C20.3963 25.6029 20.354 25.7975 20.4048 26.0176C20.4556 26.2376 20.5825 26.4154 20.7856 26.5508C20.9888 26.6523 21.2003 26.6777 21.4204 26.627C21.6404 26.5762 21.8013 26.4661 21.9028 26.2969ZM47.0903 4.86719H44.8559C44.6528 4.86719 44.4666 4.95182 44.2973 5.12109C44.1281 5.29036 44.0434 5.47656 44.0434 5.67969C44.0434 5.91667 44.1281 6.11979 44.2973 6.28906C44.4666 6.45833 44.6528 6.54297 44.8559 6.54297H47.0903C48.0721 6.54297 48.91 6.88997 49.604 7.58398C50.298 8.278 50.645 9.11589 50.645 10.0977V11.4688H41.6059C41.369 11.4688 41.1743 11.5449 41.022 11.6973C40.8696 11.8496 40.7934 12.0443 40.7934 12.2812C40.7934 12.4844 40.8696 12.6706 41.022 12.8398C41.1743 13.0091 41.369 13.0938 41.6059 13.0938H50.645V16.6484C50.645 16.7161 50.6196 16.7754 50.5688 16.8262C50.5181 16.877 50.4419 16.9023 50.3403 16.9023H14.2348C13.9979 16.9023 13.8032 16.987 13.6509 17.1562C13.4985 17.3255 13.4223 17.5286 13.4223 17.7656C13.4223 17.9688 13.4985 18.1549 13.6509 18.3242C13.8032 18.4935 13.9979 18.5781 14.2348 18.5781H49.3755L44.6528 47.8789C44.5174 48.7253 44.1196 49.4362 43.4595 50.0117C42.7993 50.5872 42.0291 50.875 41.1489 50.875H36.6294C36.3247 50.875 36.0539 50.7819 35.8169 50.5957C35.5799 50.4095 35.4106 50.181 35.3091 49.9102L35.2075 49.6562C35.0044 49.013 34.6404 48.5052 34.1157 48.1328C33.591 47.7604 33.007 47.5742 32.3638 47.5742H30.6372C30.4341 47.5742 30.2479 47.6504 30.0786 47.8027C29.9093 47.9551 29.8247 48.1497 29.8247 48.3867C29.8247 48.6237 29.9093 48.8184 30.0786 48.9707C30.2479 49.123 30.4341 49.1992 30.6372 49.1992H32.3638C32.6684 49.1992 32.9393 49.2839 33.1763 49.4531C33.4132 49.6224 33.5656 49.8594 33.6333 50.1641L33.7348 50.418C33.938 51.0612 34.3019 51.569 34.8266 51.9414C35.3514 52.3138 35.9523 52.5 36.6294 52.5H41.1489C42.4354 52.5 43.561 52.0853 44.5259 51.2559C45.4907 50.4264 46.0747 49.3854 46.2778 48.1328L51.0513 18.4258C51.4236 18.2904 51.7199 18.0618 51.9399 17.7402C52.16 17.4186 52.27 17.0547 52.27 16.6484V10.0977C52.27 8.64193 51.7622 7.40625 50.7466 6.39062C49.7309 5.375 48.5122 4.86719 47.0903 4.86719Z" fill="white"/>
</g>
<defs>
<clipPath id="clip0_76_1523">
<rect width="52" height="52" fill="white" transform="matrix(1 0 0 -1 0.270004 52.5)"/>
</clipPath>
</defs>
</svg>
