<svg width="40" height="48" viewBox="0 0 40 48" fill="none" xmlns="http://www.w3.org/2000/svg">
<path d="M36.9962 20.2232C36.9962 33.4428 19.9996 44.7739 19.9996 44.7739C19.9996 44.7739 3.00293 33.4428 3.00293 20.2232C3.00293 15.7154 4.79364 11.3923 7.98113 8.20476C11.1686 5.01727 15.4918 3.22656 19.9996 3.22656C24.5074 3.22656 28.8305 5.01727 32.018 8.20476C35.2055 11.3923 36.9962 15.7154 36.9962 20.2232Z" stroke="#ED1845" stroke-width="5" stroke-linecap="round" stroke-linejoin="round"/>
<path d="M19.9995 25.8887C23.1285 25.8887 25.6651 23.3522 25.6651 20.2232C25.6651 17.0942 23.1285 14.5576 19.9995 14.5576C16.8705 14.5576 14.334 17.0942 14.334 20.2232C14.334 23.3522 16.8705 25.8887 19.9995 25.8887Z" stroke="#ED1845" stroke-width="5" stroke-linecap="round" stroke-linejoin="round"/>
</svg>
