<svg width="152" height="66" viewBox="0 0 152 66" fill="none" xmlns="http://www.w3.org/2000/svg">
<path d="M18.665 63.08V44.648H0.809V37.16H18.665V18.92H26.153V37.16H44.105V44.648H26.153V63.08H18.665ZM72.962 65.96C71.042 65.96 68.994 65.864 66.818 65.672C64.642 65.48 62.53 65.256 60.482 65C58.498 64.68 56.77 64.392 55.298 64.136L56.162 57.416C57.442 57.544 59.01 57.704 60.866 57.896C62.786 58.088 64.802 58.248 66.914 58.376C69.026 58.504 71.042 58.568 72.962 58.568C78.466 58.568 82.594 56.872 85.346 53.48C88.098 50.024 89.506 44.776 89.57 37.736C88.034 38.248 86.338 38.792 84.482 39.368C82.626 39.944 80.77 40.424 78.914 40.808C77.058 41.128 75.362 41.288 73.826 41.288C67.106 41.288 61.954 39.72 58.37 36.584C54.85 33.384 53.09 28.424 53.09 21.704C53.09 17.352 53.986 13.608 55.778 10.472C57.57 7.336 60.13 4.936 63.458 3.272C66.786 1.544 70.69 0.679998 75.17 0.679998C80.546 0.679998 84.93 2.024 88.322 4.712C91.714 7.336 94.21 11.112 95.81 16.04C97.41 20.904 98.21 26.728 98.21 33.512C98.21 39.656 97.634 44.808 96.482 48.968C95.33 53.128 93.666 56.456 91.49 58.952C89.378 61.448 86.754 63.24 83.618 64.328C80.482 65.416 76.93 65.96 72.962 65.96ZM74.594 33.896C76.13 33.896 77.826 33.704 79.682 33.32C81.538 32.936 83.362 32.488 85.154 31.976C86.946 31.464 88.45 30.984 89.666 30.536C89.666 26.12 89.186 22.248 88.226 18.92C87.266 15.528 85.73 12.872 83.618 10.952C81.506 9.032 78.69 8.07199 75.17 8.07199C70.946 8.07199 67.618 9.32 65.186 11.816C62.754 14.248 61.538 17.544 61.538 21.704C61.538 25.928 62.658 29.032 64.898 31.016C67.138 32.936 70.37 33.896 74.594 33.896ZM126.587 65.96C124.667 65.96 122.619 65.864 120.443 65.672C118.267 65.48 116.155 65.256 114.107 65C112.123 64.68 110.395 64.392 108.923 64.136L109.787 57.416C111.067 57.544 112.635 57.704 114.491 57.896C116.411 58.088 118.427 58.248 120.539 58.376C122.651 58.504 124.667 58.568 126.587 58.568C132.091 58.568 136.219 56.872 138.971 53.48C141.723 50.024 143.131 44.776 143.195 37.736C141.659 38.248 139.963 38.792 138.107 39.368C136.251 39.944 134.395 40.424 132.539 40.808C130.683 41.128 128.987 41.288 127.451 41.288C120.731 41.288 115.579 39.72 111.995 36.584C108.475 33.384 106.715 28.424 106.715 21.704C106.715 17.352 107.611 13.608 109.403 10.472C111.195 7.336 113.755 4.936 117.083 3.272C120.411 1.544 124.315 0.679998 128.795 0.679998C134.171 0.679998 138.555 2.024 141.947 4.712C145.339 7.336 147.835 11.112 149.435 16.04C151.035 20.904 151.835 26.728 151.835 33.512C151.835 39.656 151.259 44.808 150.107 48.968C148.955 53.128 147.291 56.456 145.115 58.952C143.003 61.448 140.379 63.24 137.243 64.328C134.107 65.416 130.555 65.96 126.587 65.96ZM128.219 33.896C129.755 33.896 131.451 33.704 133.307 33.32C135.163 32.936 136.987 32.488 138.779 31.976C140.571 31.464 142.075 30.984 143.291 30.536C143.291 26.12 142.811 22.248 141.851 18.92C140.891 15.528 139.355 12.872 137.243 10.952C135.131 9.032 132.315 8.07199 128.795 8.07199C124.571 8.07199 121.243 9.32 118.811 11.816C116.379 14.248 115.163 17.544 115.163 21.704C115.163 25.928 116.283 29.032 118.523 31.016C120.763 32.936 123.995 33.896 128.219 33.896Z" fill="#275ca2"/>
</svg>
