<svg width="61" height="60" viewBox="0 0 61 60" fill="none" xmlns="http://www.w3.org/2000/svg">
<g clip-path="url(#clip0_28_307)">
<path d="M60.931 57.4999C60.931 58.1629 60.6676 58.7988 60.1988 59.2677C59.73 59.7365 59.0941 59.9999 58.431 59.9999H3.43103C2.76799 59.9999 2.1321 59.7365 1.66326 59.2677C1.19442 58.7988 0.931031 58.1629 0.931031 57.4999C0.931031 56.8369 1.19442 56.201 1.66326 55.7321C2.1321 55.2633 2.76799 54.9999 3.43103 54.9999H58.431C59.0941 54.9999 59.73 55.2633 60.1988 55.7321C60.6676 56.201 60.931 56.8369 60.931 57.4999ZM1.65853 21.3799C1.11984 20.3807 0.870267 19.2512 0.937832 18.118C1.0054 16.9849 1.38742 15.893 2.04103 14.9649C3.10918 13.3977 4.53964 12.1113 6.21103 11.2149L24.9635 1.45489C26.8067 0.496471 28.8536 -0.00390625 30.931 -0.00390625C33.0085 -0.00390625 35.0554 0.496471 36.8985 1.45489L55.6485 11.2224C57.3199 12.1188 58.7504 13.4052 59.8185 14.9724C60.4721 15.9005 60.8542 16.9924 60.9217 18.1255C60.9893 19.2587 60.7397 20.3882 60.201 21.3874C59.6211 22.4845 58.7512 23.4014 57.6863 24.0384C56.6213 24.6753 55.4019 25.0079 54.161 24.9999H53.431V44.9999H55.931C56.5941 44.9999 57.23 45.2633 57.6988 45.7321C58.1676 46.201 58.431 46.8369 58.431 47.4999C58.431 48.1629 58.1676 48.7988 57.6988 49.2677C57.23 49.7365 56.5941 49.9999 55.931 49.9999H5.93103C5.26799 49.9999 4.6321 49.7365 4.16326 49.2677C3.69442 48.7988 3.43103 48.1629 3.43103 47.4999C3.43103 46.8369 3.69442 46.201 4.16326 45.7321C4.6321 45.2633 5.26799 44.9999 5.93103 44.9999H8.43103V24.9999H7.70103C6.45893 25.0077 5.23855 24.6742 4.173 24.0358C3.10746 23.3975 2.23768 22.4787 1.65853 21.3799ZM13.431 44.9999H20.931V24.9999H13.431V44.9999ZM25.931 24.9999V44.9999H35.931V24.9999H25.931ZM48.431 24.9999H40.931V44.9999H48.431V24.9999ZM6.08853 19.0624C6.24539 19.3516 6.47881 19.592 6.76324 19.7574C7.04766 19.9228 7.3721 20.0067 7.70103 19.9999H54.161C54.49 20.0067 54.8144 19.9228 55.0988 19.7574C55.3832 19.592 55.6167 19.3516 55.7735 19.0624C55.8878 18.8713 55.943 18.6507 55.9324 18.4283C55.9217 18.2059 55.8456 17.9917 55.7135 17.8124C55.1078 16.9122 54.294 16.1712 53.341 15.6524L34.591 5.88489C33.4611 5.29845 32.2066 4.99233 30.9335 4.99233C29.6604 4.99233 28.406 5.29845 27.276 5.88489L8.52603 15.6524C7.57349 16.1729 6.75985 16.9145 6.15353 17.8149C6.02125 17.9934 5.94454 18.207 5.93298 18.4288C5.92141 18.6507 5.97552 18.8711 6.08853 19.0624Z" fill="#275ca2"/>
</g>
<defs>
<clipPath id="clip0_28_307">
<rect width="60" height="60" fill="white" transform="translate(0.93103)"/>
</clipPath>
</defs>
</svg>
