<svg width="61" height="61" viewBox="0 0 61 61" fill="none" xmlns="http://www.w3.org/2000/svg">
<g clip-path="url(#clip0_28_318)">
<path d="M48.431 5.48389H13.431C6.53853 5.48389 0.93103 11.0914 0.93103 17.9839V52.9839C0.93103 54.3664 2.05103 55.4839 3.43103 55.4839C4.81103 55.4839 5.93103 54.3664 5.93103 52.9839V47.9839H55.931V52.9839C55.931 54.3664 57.0485 55.4839 58.431 55.4839C59.8135 55.4839 60.931 54.3664 60.931 52.9839V17.9839C60.931 11.0914 55.3235 5.48389 48.431 5.48389ZM13.431 10.4839H48.431C52.566 10.4839 55.931 13.8489 55.931 17.9839V32.9839H50.931C50.931 27.4689 46.446 22.9839 40.931 22.9839H38.431C35.446 22.9839 32.766 24.2989 30.931 26.3764C29.096 24.2964 26.416 22.9839 23.431 22.9839H20.931C15.416 22.9839 10.931 27.4689 10.931 32.9839H5.93103V17.9839C5.93103 13.8489 9.29603 10.4839 13.431 10.4839ZM33.431 32.9839C33.431 30.2264 35.6735 27.9839 38.431 27.9839H40.931C43.6885 27.9839 45.931 30.2264 45.931 32.9839H33.431ZM15.931 32.9839C15.931 30.2264 18.1735 27.9839 20.931 27.9839H23.431C26.1885 27.9839 28.431 30.2264 28.431 32.9839H15.931ZM5.93103 42.9839V37.9839H55.931V42.9839H5.93103Z" fill="#275ca2"/>
</g>
<defs>
<clipPath id="clip0_28_318">
<rect width="60" height="60" fill="white" transform="translate(0.93103 0.483887)"/>
</clipPath>
</defs>
</svg>
