<svg width="60" height="60" viewBox="0 0 60 60" fill="none" xmlns="http://www.w3.org/2000/svg">
<g id="bi:building-up">
<g id="Group">
<path id="Vector" d="M46.875 60C50.356 60 53.6944 58.6172 56.1558 56.1558C58.6172 53.6944 60 50.356 60 46.875C60 43.394 58.6172 40.0556 56.1558 37.5942C53.6944 35.1328 50.356 33.75 46.875 33.75C43.394 33.75 40.0556 35.1328 37.5942 37.5942C35.1328 40.0556 33.75 43.394 33.75 46.875C33.75 50.356 35.1328 53.6944 37.5942 56.1558C40.0556 58.6172 43.394 60 46.875 60ZM48.2025 38.0475L53.8275 43.6725C54.1796 44.0246 54.3774 44.5021 54.3774 45C54.3774 45.4979 54.1796 45.9754 53.8275 46.3275C53.4754 46.6796 52.9979 46.8774 52.5 46.8774C52.0021 46.8774 51.5246 46.6796 51.1725 46.3275L48.75 43.9012V54.375C48.75 54.8723 48.5525 55.3492 48.2008 55.7008C47.8492 56.0525 47.3723 56.25 46.875 56.25C46.3777 56.25 45.9008 56.0525 45.5492 55.7008C45.1975 55.3492 45 54.8723 45 54.375V43.9012L42.5775 46.3275C42.2254 46.6796 41.7479 46.8774 41.25 46.8774C40.7521 46.8774 40.2746 46.6796 39.9225 46.3275C39.5704 45.9754 39.3726 45.4979 39.3726 45C39.3726 44.5021 39.5704 44.0246 39.9225 43.6725L45.5475 38.0475C45.7217 37.8729 45.9286 37.7344 46.1564 37.6398C46.3842 37.5453 46.6284 37.4966 46.875 37.4966C47.1216 37.4966 47.3658 37.5453 47.5936 37.6398C47.8214 37.7344 48.0283 37.8729 48.2025 38.0475Z" fill="#275CA2"/>
<path id="Vector_2" d="M7.5 3.75C7.5 2.75544 7.89509 1.80161 8.59835 1.09835C9.30161 0.395088 10.2554 0 11.25 0L48.75 0C49.7446 0 50.6984 0.395088 51.4016 1.09835C52.1049 1.80161 52.5 2.75544 52.5 3.75V28.125C52.5 28.6223 52.3025 29.0992 51.9508 29.4508C51.5992 29.8025 51.1223 30 50.625 30C50.1277 30 49.6508 29.8025 49.2992 29.4508C48.9475 29.0992 48.75 28.6223 48.75 28.125V3.75H11.25V56.25H22.5V46.875C22.5 46.3777 22.6975 45.9008 23.0492 45.5492C23.4008 45.1975 23.8777 45 24.375 45H30V60H11.25C10.2554 60 9.30161 59.6049 8.59835 58.9016C7.89509 58.1984 7.5 57.2446 7.5 56.25V3.75Z" fill="#275CA2"/>
<path id="Vector_3" d="M16.875 7.5C16.3777 7.5 15.9008 7.69754 15.5492 8.04918C15.1975 8.40081 15 8.87772 15 9.375V13.125C15 13.6223 15.1975 14.0992 15.5492 14.4508C15.9008 14.8025 16.3777 15 16.875 15H20.625C21.1223 15 21.5992 14.8025 21.9508 14.4508C22.3025 14.0992 22.5 13.6223 22.5 13.125V9.375C22.5 8.87772 22.3025 8.40081 21.9508 8.04918C21.5992 7.69754 21.1223 7.5 20.625 7.5H16.875ZM28.125 7.5C27.6277 7.5 27.1508 7.69754 26.7992 8.04918C26.4475 8.40081 26.25 8.87772 26.25 9.375V13.125C26.25 13.6223 26.4475 14.0992 26.7992 14.4508C27.1508 14.8025 27.6277 15 28.125 15H31.875C32.3723 15 32.8492 14.8025 33.2008 14.4508C33.5525 14.0992 33.75 13.6223 33.75 13.125V9.375C33.75 8.87772 33.5525 8.40081 33.2008 8.04918C32.8492 7.69754 32.3723 7.5 31.875 7.5H28.125ZM39.375 7.5C38.8777 7.5 38.4008 7.69754 38.0492 8.04918C37.6975 8.40081 37.5 8.87772 37.5 9.375V13.125C37.5 13.6223 37.6975 14.0992 38.0492 14.4508C38.4008 14.8025 38.8777 15 39.375 15H43.125C43.6223 15 44.0992 14.8025 44.4508 14.4508C44.8025 14.0992 45 13.6223 45 13.125V9.375C45 8.87772 44.8025 8.40081 44.4508 8.04918C44.0992 7.69754 43.6223 7.5 43.125 7.5H39.375ZM16.875 18.75C16.3777 18.75 15.9008 18.9475 15.5492 19.2992C15.1975 19.6508 15 20.1277 15 20.625V24.375C15 24.8723 15.1975 25.3492 15.5492 25.7008C15.9008 26.0525 16.3777 26.25 16.875 26.25H20.625C21.1223 26.25 21.5992 26.0525 21.9508 25.7008C22.3025 25.3492 22.5 24.8723 22.5 24.375V20.625C22.5 20.1277 22.3025 19.6508 21.9508 19.2992C21.5992 18.9475 21.1223 18.75 20.625 18.75H16.875ZM28.125 18.75C27.6277 18.75 27.1508 18.9475 26.7992 19.2992C26.4475 19.6508 26.25 20.1277 26.25 20.625V24.375C26.25 24.8723 26.4475 25.3492 26.7992 25.7008C27.1508 26.0525 27.6277 26.25 28.125 26.25H31.875C32.3723 26.25 32.8492 26.0525 33.2008 25.7008C33.5525 25.3492 33.75 24.8723 33.75 24.375V20.625C33.75 20.1277 33.5525 19.6508 33.2008 19.2992C32.8492 18.9475 32.3723 18.75 31.875 18.75H28.125ZM39.375 18.75C38.8777 18.75 38.4008 18.9475 38.0492 19.2992C37.6975 19.6508 37.5 20.1277 37.5 20.625V24.375C37.5 24.8723 37.6975 25.3492 38.0492 25.7008C38.4008 26.0525 38.8777 26.25 39.375 26.25H43.125C43.6223 26.25 44.0992 26.0525 44.4508 25.7008C44.8025 25.3492 45 24.8723 45 24.375V20.625C45 20.1277 44.8025 19.6508 44.4508 19.2992C44.0992 18.9475 43.6223 18.75 43.125 18.75H39.375ZM16.875 30C16.3777 30 15.9008 30.1975 15.5492 30.5492C15.1975 30.9008 15 31.3777 15 31.875V35.625C15 36.1223 15.1975 36.5992 15.5492 36.9508C15.9008 37.3025 16.3777 37.5 16.875 37.5H20.625C21.1223 37.5 21.5992 37.3025 21.9508 36.9508C22.3025 36.5992 22.5 36.1223 22.5 35.625V31.875C22.5 31.3777 22.3025 30.9008 21.9508 30.5492C21.5992 30.1975 21.1223 30 20.625 30H16.875ZM28.125 30C27.6277 30 27.1508 30.1975 26.7992 30.5492C26.4475 30.9008 26.25 31.3777 26.25 31.875V35.625C26.25 36.1223 26.4475 36.5992 26.7992 36.9508C27.1508 37.3025 27.6277 37.5 28.125 37.5H31.875C32.3723 37.5 32.8492 37.3025 33.2008 36.9508C33.5525 36.5992 33.75 36.1223 33.75 35.625V31.875C33.75 31.3777 33.5525 30.9008 33.2008 30.5492C32.8492 30.1975 32.3723 30 31.875 30H28.125Z" fill="#275CA2"/>
</g>
</g>
</svg>
