<svg width="61" height="60" viewBox="0 0 61 60" fill="none" xmlns="http://www.w3.org/2000/svg">
<g clip-path="url(#clip0_185_6)">
<path d="M10.0068 25H17.5068V32.5H10.0068V25ZM22.5068 32.5H30.0068V25H22.5068V32.5ZM10.0068 45H17.5068V37.5H10.0068V45ZM22.5068 45H30.0068V37.5H22.5068V45ZM10.0068 20H17.5068V12.5H10.0068V20ZM22.5068 20H30.0068V12.5H22.5068V20ZM60.0068 21.25V60H0.00683594V8.75C0.00683594 6.42936 0.928708 4.20376 2.56965 2.56282C4.21059 0.921872 6.43619 0 8.75684 0L31.2568 0C33.5775 0 35.8031 0.921872 37.444 2.56282C39.085 4.20376 40.0068 6.42936 40.0068 8.75V12.5H51.2568C53.5775 12.5 55.8031 13.4219 57.444 15.0628C59.085 16.7038 60.0068 18.9294 60.0068 21.25ZM32.5068 8.75C32.5068 8.41848 32.3751 8.10054 32.1407 7.86612C31.9063 7.6317 31.5884 7.5 31.2568 7.5H8.75684C8.42531 7.5 8.10737 7.6317 7.87295 7.86612C7.63853 8.10054 7.50684 8.41848 7.50684 8.75V52.5H32.5068V8.75ZM52.5068 21.25C52.5068 20.9185 52.3751 20.6005 52.1407 20.3661C51.9063 20.1317 51.5884 20 51.2568 20H40.0068V52.5H52.5068V21.25ZM42.5068 32.5H50.0068V25H42.5068V32.5ZM42.5068 45H50.0068V37.5H42.5068V45Z" fill="#275ca2"/>
</g>
<defs>
<clipPath id="clip0_185_6">
<rect width="60" height="60" fill="white" transform="translate(0.00683594)"/>
</clipPath>
</defs>
</svg>
