<svg width="60" height="61" viewBox="0 0 60 61" fill="none" xmlns="http://www.w3.org/2000/svg">
<g clip-path="url(#clip0_28_392)">
<path d="M44.985 6.21496C41.9335 3.48882 38.1964 1.64642 34.1758 0.886043C30.1552 0.125663 26.0034 0.47609 22.1671 1.89961C18.3309 3.32314 14.9554 5.76586 12.4041 8.9649C9.85271 12.1639 8.22203 15.9982 7.6875 20.055C7.20745 23.6121 7.59138 27.2325 8.8068 30.6098C10.0222 33.9871 12.0334 37.022 14.67 39.4575C16.3005 40.8873 17.6162 42.6403 18.5337 44.6052C19.4512 46.5702 19.9505 48.7044 20 50.8725V51.275C20.0027 53.7208 20.9754 56.0656 22.7049 57.7951C24.4343 59.5245 26.7792 60.4973 29.225 60.5H30.775C33.2208 60.4973 35.5657 59.5245 37.2951 57.7951C39.0246 56.0656 39.9974 53.7208 40 51.275V49.9025C40.0374 47.9861 40.4884 46.1005 41.322 44.3745C42.1556 42.6486 43.3523 41.1231 44.83 39.9025C47.2265 37.8036 49.1496 35.2194 50.472 32.3212C51.7943 29.4229 52.4857 26.2768 52.5004 23.0911C52.515 19.9055 51.8526 16.7531 50.557 13.8429C49.2613 10.9326 47.3621 8.33082 44.985 6.20996V6.21496ZM30.775 55.5H29.225C28.1049 55.4986 27.031 55.0531 26.2389 54.261C25.4469 53.469 25.0013 52.3951 25 51.275C25 51.275 24.9825 50.625 24.98 50.5H35V51.275C34.9987 52.3951 34.5531 53.469 33.7611 54.261C32.969 55.0531 31.8951 55.4986 30.775 55.5ZM41.525 36.1475C38.6786 38.6163 36.6229 41.8693 35.615 45.5H32.5V27.54C33.9573 27.0248 35.2198 26.0719 36.1148 24.8117C37.0098 23.5515 37.4936 22.0456 37.5 20.5C37.5 19.8369 37.2366 19.201 36.7678 18.7322C36.2989 18.2634 35.663 18 35 18C34.337 18 33.7011 18.2634 33.2322 18.7322C32.7634 19.201 32.5 19.8369 32.5 20.5C32.5 21.163 32.2366 21.7989 31.7678 22.2677C31.2989 22.7366 30.663 23 30 23C29.337 23 28.7011 22.7366 28.2322 22.2677C27.7634 21.7989 27.5 21.163 27.5 20.5C27.5 19.8369 27.2366 19.201 26.7678 18.7322C26.2989 18.2634 25.663 18 25 18C24.337 18 23.7011 18.2634 23.2322 18.7322C22.7634 19.201 22.5 19.8369 22.5 20.5C22.5064 22.0456 22.9902 23.5515 23.8852 24.8117C24.7802 26.0719 26.0427 27.0248 27.5 27.54V45.5H24.195C23.0675 41.773 20.9528 38.4204 18.075 35.7975C15.6324 33.5215 13.8918 30.5942 13.0587 27.3612C12.2255 24.1281 12.3346 20.7243 13.373 17.5512C14.4114 14.3781 16.3359 11.5683 18.9192 9.45337C21.5025 7.33841 24.6369 6.00655 27.9525 5.61496C28.6398 5.53824 29.3309 5.49985 30.0225 5.49996C34.3164 5.4872 38.4617 7.07153 41.6525 9.94496C43.5017 11.594 44.9793 13.6172 45.9874 15.8805C46.9954 18.1439 47.5108 20.5956 47.4995 23.0733C47.4881 25.5509 46.9503 27.9978 45.9216 30.2519C44.8928 32.5059 43.3968 34.5155 41.5325 36.1475H41.525Z" fill="#275ca2"/>
</g>
<defs>
<clipPath id="clip0_28_392">
<rect width="60" height="60" fill="white" transform="translate(0 0.5)"/>
</clipPath>
</defs>
</svg>
