<svg width="61" height="60" viewBox="0 0 61 60" fill="none" xmlns="http://www.w3.org/2000/svg">
<g clip-path="url(#clip0_185_29)">
<path d="M43.0068 25.0975C33.3593 25.0975 25.5068 32.9475 25.5068 42.5975C25.5068 52.1925 33.3593 60 43.0068 60C52.6543 60 60.5068 52.15 60.5068 42.5C60.5068 32.905 52.6543 25.0975 43.0068 25.0975ZM43.0068 55C36.1143 55 30.5068 49.435 30.5068 42.5975C30.5068 35.705 36.1143 30.0975 43.0068 30.0975C49.8993 30.0975 55.5068 35.6625 55.5068 42.5C55.5068 49.3925 49.8993 55 43.0068 55ZM47.2743 43.2325C48.2518 44.21 48.2518 45.79 47.2743 46.7675C46.7868 47.255 46.1468 47.5 45.5068 47.5C44.8668 47.5 44.2268 47.255 43.7393 46.7675L41.2393 44.2675C40.7693 43.7975 40.5068 43.1625 40.5068 42.5V37.5C40.5068 36.12 41.6243 35 43.0068 35C44.3893 35 45.5068 36.12 45.5068 37.5V41.465L47.2743 43.2325ZM60.5068 17.5V22.5C60.5068 23.88 59.3893 25 58.0068 25C56.6243 25 55.5068 23.88 55.5068 22.5V17.5C55.5068 13.365 52.1418 10 48.0068 10H13.0068C8.87184 10 5.50684 13.365 5.50684 17.5V20H28.0068C29.3868 20 30.5068 21.12 30.5068 22.5C30.5068 23.88 29.3868 25 28.0068 25H5.50684V47.5C5.50684 51.635 8.87184 55 13.0068 55H23.0068C24.3868 55 25.5068 56.12 25.5068 57.5C25.5068 58.88 24.3868 60 23.0068 60H13.0068C6.11434 60 0.506836 54.3925 0.506836 47.5V17.5C0.506836 10.6075 6.11434 5 13.0068 5H15.5068V2.5C15.5068 1.12 16.6268 0 18.0068 0C19.3868 0 20.5068 1.12 20.5068 2.5V5H40.5068V2.5C40.5068 1.12 41.6243 0 43.0068 0C44.3893 0 45.5068 1.12 45.5068 2.5V5H48.0068C54.8993 5 60.5068 10.6075 60.5068 17.5Z" fill="#275ca2"/>
</g>
<defs>
<clipPath id="clip0_185_29">
<rect width="60" height="60" fill="white" transform="translate(0.506836)"/>
</clipPath>
</defs>
</svg>
