<svg width="61" height="60" viewBox="0 0 61 60" fill="none" xmlns="http://www.w3.org/2000/svg">
<g clip-path="url(#clip0_185_17)">
<path d="M56.2569 9.93994H48.5419C48.0475 9.94005 47.5643 10.0867 47.1532 10.3614C46.7422 10.6361 46.4219 11.0266 46.2327 11.4833C46.0435 11.9401 45.994 12.4426 46.0904 12.9275C46.1868 13.4124 46.4249 13.8578 46.7744 14.2074L49.4894 16.9224L40.5244 25.8849C40.048 26.3402 39.4145 26.5942 38.7556 26.5942C38.0967 26.5942 37.4632 26.3402 36.9869 25.8849L36.5619 25.4574C35.1334 24.0926 33.2338 23.331 31.2581 23.331C29.2825 23.331 27.3828 24.0926 25.9544 25.4574L13.2044 38.2074C12.7346 38.6785 12.4712 39.3169 12.4722 39.9822C12.4731 40.6475 12.7383 41.2852 13.2094 41.7549C13.6805 42.2247 14.3189 42.4881 14.9842 42.4872C15.6495 42.4862 16.2871 42.221 16.7569 41.7499L29.5069 28.9999C29.9829 28.5441 30.6166 28.2897 31.2756 28.2897C31.9347 28.2897 32.5683 28.5441 33.0444 28.9999L33.4694 29.4274C34.8984 30.7911 36.7978 31.552 38.7731 31.552C40.7484 31.552 42.6478 30.7911 44.0769 29.4274L53.0419 20.4624L55.7569 23.1774C56.1077 23.5213 56.552 23.7542 57.0344 23.8471C57.5168 23.9399 58.0158 23.8886 58.4692 23.6995C58.9226 23.5104 59.3102 23.1919 59.5837 22.7839C59.8572 22.3758 60.0044 21.8962 60.0069 21.4049V13.6899C60.0069 12.6954 59.6118 11.7416 58.9085 11.0383C58.2053 10.335 57.2514 9.93994 56.2569 9.93994Z" fill="#275ca2"/>
<path d="M57.5068 54.94H12.5068C10.5177 54.94 8.61006 54.1498 7.20354 52.7433C5.79701 51.3368 5.00684 49.4291 5.00684 47.44V2.5C5.00684 1.83696 4.74344 1.20107 4.2746 0.732233C3.80576 0.263392 3.16988 0 2.50684 0C1.84379 0 1.20791 0.263392 0.739069 0.732233C0.270228 1.20107 0.00683594 1.83696 0.00683594 2.5L0.00683594 47.44C0.0108056 50.754 1.32904 53.9311 3.67239 56.2745C6.01573 58.6178 9.19285 59.936 12.5068 59.94H57.5068C58.1699 59.94 58.8058 59.6766 59.2746 59.2078C59.7434 58.7389 60.0068 58.103 60.0068 57.44C60.0068 56.777 59.7434 56.1411 59.2746 55.6722C58.8058 55.2034 58.1699 54.94 57.5068 54.94Z" fill="#275ca2"/>
</g>
<defs>
<clipPath id="clip0_185_17">
<rect width="60" height="60" fill="white" transform="translate(0.00683594)"/>
</clipPath>
</defs>
</svg>
