<svg width="61" height="61" viewBox="0 0 61 61" fill="none" xmlns="http://www.w3.org/2000/svg">
<g clip-path="url(#clip0_28_322)">
<path d="M58.4828 40.4553V22.9553C59.8628 22.9553 60.9828 21.8378 60.9828 20.4553C60.9828 19.0728 59.8628 17.9553 58.4828 17.9553V7.94533C58.4828 6.63033 57.9503 5.34033 57.0178 4.41033L54.5178 1.91033C52.5703 -0.0371681 49.3953 -0.0371681 47.4478 1.91033L44.9478 4.41033C44.0153 5.34033 43.4828 6.63033 43.4828 7.94533V17.9553H38.4828V7.94533C38.4828 6.63033 37.9503 5.34033 37.0178 4.41033L34.5178 1.91033C32.5703 -0.0371681 29.3953 -0.0371681 27.4478 1.91033L24.9478 4.41033C24.0153 5.34033 23.4828 6.63033 23.4828 7.94533V17.9553H18.4828V7.94533C18.4828 6.63033 17.9503 5.34033 17.0178 4.41033L14.5178 1.91033C12.5703 -0.0371681 9.39529 -0.0371681 7.44779 1.91033L4.94779 4.41033C4.01529 5.34033 3.48279 6.63033 3.48279 7.94533V17.9553C2.10279 17.9553 0.982788 19.0728 0.982788 20.4553C0.982788 21.8378 2.10279 22.9553 3.48279 22.9553V40.4553C2.10279 40.4553 0.982788 41.5728 0.982788 42.9553C0.982788 44.3378 2.10279 45.4553 3.48279 45.4553V54.2053C3.48279 57.6528 6.28779 60.4553 9.73279 60.4553H12.2328C15.6778 60.4553 18.4828 57.6528 18.4828 54.2053V45.4553H23.4828V54.2053C23.4828 57.6528 26.2878 60.4553 29.7328 60.4553H32.2328C35.6778 60.4553 38.4828 57.6528 38.4828 54.2053V45.4553H43.4828V54.2053C43.4828 57.6528 46.2878 60.4553 49.7328 60.4553H52.2328C55.6778 60.4553 58.4828 57.6528 58.4828 54.2053V45.4553C59.8628 45.4553 60.9828 44.3378 60.9828 42.9553C60.9828 41.5728 59.8628 40.4553 58.4828 40.4553ZM53.4828 40.4553H48.4828V22.9553H53.4828V40.4553ZM48.4828 7.94533L50.9828 5.44533L53.4828 7.94533V17.9553H48.4828V7.94533ZM28.4828 7.94533L30.9828 5.44533L33.4828 7.94533V17.9553H28.4828V7.94533ZM33.4828 22.9553V40.4553H28.4828V22.9553H33.4828ZM8.48279 7.94533L10.9828 5.44533L13.4828 7.94533V17.9553H8.48279V7.94533ZM8.48279 22.9553H13.4828V40.4553H8.48279V22.9553ZM13.4828 54.2053C13.4828 54.8928 12.9228 55.4553 12.2328 55.4553H9.73279C9.04279 55.4553 8.48279 54.8928 8.48279 54.2053V45.4553H13.4828V54.2053ZM18.4828 40.4553V22.9553H23.4828V40.4553H18.4828ZM33.4828 54.2053C33.4828 54.8928 32.9228 55.4553 32.2328 55.4553H29.7328C29.0428 55.4553 28.4828 54.8928 28.4828 54.2053V45.4553H33.4828V54.2053ZM38.4828 40.4553V22.9553H43.4828V40.4553H38.4828ZM53.4828 54.2053C53.4828 54.8928 52.9228 55.4553 52.2328 55.4553H49.7328C49.0428 55.4553 48.4828 54.8928 48.4828 54.2053V45.4553H53.4828V54.2053Z" fill="#275ca2"/>
</g>
<defs>
<clipPath id="clip0_28_322">
<rect width="60" height="60" fill="white" transform="translate(0.982788 0.455566)"/>
</clipPath>
</defs>
</svg>
