<svg width="60" height="61" viewBox="0 0 60 61" fill="none" xmlns="http://www.w3.org/2000/svg">
<g clip-path="url(#clip0_28_403)">
<path d="M57.55 22.4752C56.075 21.1252 54.15 20.4502 52.125 20.5252C50.125 20.6252 48.275 21.5002 46.9 22.9752L38.85 31.8002C37.475 29.5252 34.975 28.0002 32.125 28.0002H10C4.475 28.0002 0 32.4752 0 38.0002V50.5002C0 56.0252 4.475 60.5002 10 60.5002H22.4C29.525 60.5002 36.325 57.4502 41.075 52.1252L58.1 33.0252C60.825 29.9502 60.575 25.2252 57.55 22.4502V22.4752ZM54.375 29.7252L37.35 48.8252C33.55 53.0752 28.125 55.5252 22.425 55.5252H10C7.25 55.5252 5 53.2752 5 50.5252V38.0252C5 35.2752 7.25 33.0252 10 33.0252H32.15C33.725 33.0252 35 34.3002 35 35.8752C35 37.2752 33.95 38.5002 32.55 38.7002L19.65 40.5502C18.275 40.7502 17.325 42.0002 17.525 43.3752C17.725 44.7502 19 45.7002 20.35 45.5002L33.25 43.6502C36.2 43.2252 38.575 41.1752 39.525 38.5002L50.6 26.3502C51.05 25.8502 51.675 25.5502 52.35 25.5252C53.025 25.5252 53.675 25.7252 54.175 26.1752C55.2 27.1002 55.275 28.7002 54.35 29.7252H54.375Z" fill="#275ca2"/>
<path d="M22.5 25.5001H23.45C27.075 25.5001 30 22.5501 30 18.9501C30 15.7251 27.7 13.0001 24.525 12.4751L16.325 11.1001C15.575 10.9751 15.025 10.3251 15.025 9.5501C15.025 8.7001 15.725 8.0001 16.575 8.0001H23.175C24.075 8.0001 24.9 8.4751 25.35 9.2501C26.025 10.4501 27.55 10.8501 28.775 10.1501C29.975 9.4501 30.375 7.9251 29.675 6.7251C28.35 4.4251 25.85 2.9751 23.175 2.9751H22.5C22.5 1.6001 21.375 0.475098 20 0.475098C18.625 0.475098 17.5 1.6001 17.5 2.9751H16.55C12.925 2.9751 9.99997 5.9251 9.99997 9.5251C9.99997 12.7501 12.3 15.4751 15.475 16.0001L23.675 17.3751C24.425 17.5001 24.975 18.1501 24.975 18.9251C24.975 19.7751 24.275 20.4751 23.425 20.4751H16.825C15.925 20.4751 15.1 20.0001 14.65 19.2251C13.95 18.0251 12.425 17.6251 11.225 18.3251C10.025 19.0251 9.62497 20.5501 10.325 21.7501C11.65 24.0501 14.15 25.5001 16.825 25.5001H17.5C17.5 26.8751 18.625 28.0001 20 28.0001C21.375 28.0001 22.5 26.8751 22.5 25.5001Z" fill="#275ca2"/>
</g>
<defs>
<clipPath id="clip0_28_403">
<rect width="60" height="60" fill="white" transform="translate(0 0.5)"/>
</clipPath>
</defs>
</svg>
