<svg width="61" height="60" viewBox="0 0 61 60" fill="none" xmlns="http://www.w3.org/2000/svg">
<g clip-path="url(#clip0_185_36)">
<path d="M22.9193 60H10.5068C7.85467 60 5.31113 58.9464 3.43577 57.0711C1.5604 55.1957 0.506836 52.6522 0.506836 50V37.5C0.506836 34.8478 1.5604 32.3043 3.43577 30.4289C5.31113 28.5536 7.85467 27.5 10.5068 27.5H32.6493C34.0023 27.5006 35.3323 27.8505 36.5104 28.5158C37.6886 29.1811 38.675 30.1392 39.3743 31.2975L47.4168 22.46C48.0821 21.7285 48.8849 21.1352 49.7796 20.7142C50.6742 20.2931 51.643 20.0525 52.6307 20.006C53.6184 19.9596 54.6055 20.1083 55.5357 20.4435C56.4659 20.7788 57.3209 21.2941 58.0518 21.96C59.5103 23.2998 60.3843 25.1587 60.4857 27.1366C60.5872 29.1144 59.908 31.053 58.5943 32.535L41.5943 51.6275C39.2471 54.26 36.37 56.3668 33.1517 57.8097C29.9333 59.2526 26.4463 59.999 22.9193 60ZM10.5068 32.5C9.18075 32.5 7.90898 33.0268 6.9713 33.9645C6.03362 34.9021 5.50684 36.1739 5.50684 37.5V50C5.50684 51.3261 6.03362 52.5979 6.9713 53.5355C7.90898 54.4732 9.18075 55 10.5068 55H22.9193C25.7391 54.9989 28.5269 54.4019 31.0998 53.2481C33.6728 52.0943 35.9729 50.4098 37.8493 48.305L54.8618 29.21C55.3035 28.7125 55.5322 28.0614 55.4985 27.3969C55.4648 26.7325 55.1716 26.1078 54.6818 25.6575C54.1839 25.2098 53.531 24.9739 52.8618 25C52.5301 25.014 52.2046 25.094 51.9041 25.2352C51.6036 25.3764 51.3343 25.5761 51.1118 25.8225L40.0468 38C39.561 39.3444 38.7194 40.5317 37.6116 41.4352C36.5038 42.3387 35.1715 42.9245 33.7568 43.13L20.8543 44.975C20.1979 45.0692 19.531 44.8987 19.0003 44.5011C18.4695 44.1035 18.1185 43.5114 18.0243 42.855C17.9302 42.1986 18.1006 41.5317 18.4982 41.0009C18.8958 40.4702 19.4879 40.1192 20.1443 40.025L33.0493 38.1825C33.7657 38.0824 34.4173 37.7141 34.8726 37.152C35.3278 36.5899 35.5528 35.876 35.502 35.1545C35.4512 34.433 35.1285 33.7577 34.5989 33.2649C34.0694 32.7722 33.3726 32.4988 32.6493 32.5H10.5068ZM28.0068 22.685C26.8737 22.688 25.7737 22.3034 24.8893 21.595C20.6093 18.16 15.5068 13 15.5068 8C15.4455 5.94591 16.2 3.95111 17.6055 2.45191C19.011 0.952708 20.9531 0.0711305 23.0068 0C24.8752 0.00727706 26.6678 0.739544 28.0068 2.0425C29.3459 0.739544 31.1385 0.00727706 33.0068 0C35.0606 0.0711305 37.0026 0.952708 38.4081 2.45191C39.8136 3.95111 40.5682 5.94591 40.5068 8C40.5068 13 35.4043 18.16 31.1218 21.5975C30.2378 22.3045 29.1388 22.6882 28.0068 22.685ZM23.0068 5C22.2802 5.07291 21.6112 5.42805 21.1437 5.98906C20.6762 6.55007 20.4475 7.27214 20.5068 8C20.5068 10.25 23.3843 13.975 28.0218 17.6975C32.6293 13.975 35.5068 10.25 35.5068 8C35.5662 7.27214 35.3375 6.55007 34.87 5.98906C34.4025 5.42805 33.7335 5.07291 33.0068 5C32.2802 5.07291 31.6112 5.42805 31.1437 5.98906C30.6762 6.55007 30.4475 7.27214 30.5068 8C30.5068 8.66304 30.2434 9.29893 29.7746 9.76777C29.3058 10.2366 28.6699 10.5 28.0068 10.5C27.3438 10.5 26.7079 10.2366 26.2391 9.76777C25.7702 9.29893 25.5068 8.66304 25.5068 8C25.5662 7.27214 25.3375 6.55007 24.87 5.98906C24.4025 5.42805 23.7335 5.07291 23.0068 5Z" fill="#275ca2"/>
</g>
<defs>
<clipPath id="clip0_185_36">
<rect width="60" height="60" fill="white" transform="translate(0.506836)"/>
</clipPath>
</defs>
</svg>
