<svg width="60" height="61" viewBox="0 0 60 61" fill="none" xmlns="http://www.w3.org/2000/svg">
<g clip-path="url(#clip0_28_381)">
<path d="M35.0475 12.525C37.275 10.4325 40.7575 9.92 43.4825 11.2875L51.91 15.5025H60V10.5025H53.09L45.72 6.815C41.16 4.5325 35.3375 5.38 31.6175 8.885L30.0725 10.34L28.3225 8.745C26.025 6.6525 23.05 5.5 19.8475 5.5C17.92 5.5 15.9975 5.955 14.28 6.8125L6.9075 10.5H0V15.5H8.09L16.52 11.285C19.075 10 22.665 10.3475 24.955 12.44L26.4225 13.7775L19.8075 20.0075C17.125 22.6875 16.6975 26.925 18.8125 29.8525C20.1125 31.66 22.31 33 24.9225 33C26.905 33 28.8075 32.22 30.1825 30.8425L32.6975 28.435L48.555 40.3275L30 54.2025L8.3325 38H0V43H6.6675L30 60.4475L53.3325 43H60V38H53.7825L36.3575 24.9325L40.5775 20.8925L37.12 17.28L26.6875 27.2675C26.1675 27.7875 25.46 28.055 24.7175 27.9925C23.9725 27.9325 23.3175 27.555 22.87 26.93C22.185 25.98 22.395 24.4925 23.29 23.595L35.0475 12.525Z" fill="#275ca2"/>
</g>
<defs>
<clipPath id="clip0_28_381">
<rect width="60" height="60" fill="white" transform="translate(0 0.5)"/>
</clipPath>
</defs>
</svg>
