<svg width="484" height="543" viewBox="0 0 484 543" fill="none" xmlns="http://www.w3.org/2000/svg">
<path d="M210.902 151C210.903 139.336 210.88 128.171 210.933 117.007C210.941 115.381 210.759 113.352 211.605 112.198C216.58 105.404 221.833 98.8146 227.977 92.4596C227.977 116.808 227.977 141.156 227.977 165.822C230.15 165.931 231.748 166.012 234.158 166.134C234.158 164.072 234.158 162.314 234.158 160.556C234.163 136.228 234.258 111.899 234.09 87.5719C234.06 83.1625 235.606 79.9859 239.168 76.9178C246.419 87.8935 253.548 98.6823 260.671 109.476C261.497 110.727 262.277 112.007 263.089 113.267C268.043 120.955 274.923 128.071 277.418 136.488C279.918 144.923 278.079 154.654 278.08 163.818C278.09 231.137 278.015 298.457 278.228 365.777C278.243 370.588 276.486 372.387 272.439 373.917C252.648 381.402 232.333 382.825 210.902 380.001C210.902 303.697 210.902 227.598 210.902 151ZM270.994 162.594C270.994 162.594 270.929 162.154 270.972 161.339C270.961 160.522 270.949 159.705 270.972 158.072C270.619 155.792 270.265 153.512 269.957 150.467C269.968 149.956 269.979 149.445 270.521 148.657C270.722 148.098 270.923 147.538 271.592 146.539C271.441 145.367 271.29 144.196 270.975 142.462C270.651 141.982 270.327 141.502 269.654 140.511C269.071 140.368 268.488 140.224 267.921 140.1C267.921 140.1 267.894 140.123 267.876 139.365C265.946 134.831 262.709 137.907 259.564 137.582C258.688 137.136 257.812 136.689 256.62 135.613C255.726 135.426 254.832 135.24 253.956 135.044C253.956 135.044 253.937 135.075 253.495 134.479C252.005 134.318 250.515 134.158 248.536 133.473C245.997 132.599 243.459 131.726 240.26 130.626C240.26 133.35 240.26 135.148 239.673 137.324C239.863 138.683 240.053 140.043 240.274 142.171C240.273 143.966 240.273 145.76 240.122 148.488C240.133 149.744 240.144 151.001 240.251 153.005C240.831 155.009 241.412 157.013 241.974 159.895C241.936 160.48 241.897 161.064 241.217 161.673C241.221 164.088 241.226 166.503 240.604 169.384C240.485 170.387 240.366 171.39 240.281 173.149C240.32 174.898 240.359 176.646 240.323 179.073C240.31 180.198 240.297 181.323 240.299 183.209C240.288 184.997 240.276 186.785 239.963 189.234C240.022 190.569 240.082 191.904 240.243 193.98C240.545 195.87 240.847 197.761 241.028 200.403C240.747 201.372 240.467 202.341 240.264 204.054C240.528 205.986 240.792 207.918 241.027 210.599C241.015 211.348 241.003 212.097 240.56 213.465C240.501 215.449 240.441 217.433 240.178 220.363C240.164 221.651 240.151 222.938 240.243 224.983C240.487 226.71 240.73 228.436 240.972 230.872C240.703 232.005 240.434 233.139 240.245 235.059C240.238 236.909 240.231 238.759 240.256 241.239C240.235 242.266 240.214 243.293 240.275 245.063C240.533 247 240.79 248.937 241.026 251.614C241.014 252.354 241.003 253.094 240.531 254.439C240.472 256.442 240.413 258.445 240.169 261.421C240.19 262.407 240.212 263.393 240.283 265.15C240.514 267.155 240.744 269.159 240.973 271.872C240.702 273.004 240.432 274.136 240.249 276.017C240.829 278.022 241.409 280.028 241.969 282.929C241.928 283.526 241.887 284.122 241.226 284.767C241.166 287.141 241.106 289.515 241.022 292.642C241.014 293.396 241.006 294.151 240.527 295.491C240.687 297.685 240.847 299.879 241.266 302.5C241.568 302.621 241.871 302.742 242.202 302.799C242.202 302.799 242.266 302.771 242.117 303.557C242.07 304.088 242.022 304.619 241.267 305.286C241.168 307.597 241.068 309.907 240.97 312.914C240.696 314.026 240.421 315.138 240.239 317.028C240.394 323.007 241.114 323.662 249.664 324.995C250.109 324.996 250.553 324.997 251.234 325.46C251.515 325.896 251.795 326.332 252.329 327.492C253.979 327.955 255.629 328.417 257.956 328.951C258.628 328.938 259.3 328.925 260.271 329.545C261.275 329.98 262.28 330.415 264.006 330.965C266.13 331.699 268.254 332.434 270.86 333.335C270.86 330.524 270.86 328.387 270.933 325.42C270.942 324.588 270.952 323.756 270.992 322.093C270.847 319.959 270.701 317.826 270.776 314.755C270.819 314.115 270.863 313.475 270.96 312.005C270.88 309.831 270.8 307.657 270.853 304.553C270.848 303.928 270.842 303.302 270.92 301.861C270.891 299.673 270.863 297.486 270.966 294.632C271.006 291.754 271.046 288.876 270.953 285.608C270.953 285.608 270.898 285.199 270.956 284.381C270.958 283.562 270.96 282.742 270.989 281.072C270.97 279.094 270.951 277.116 270.97 274.301C270.942 273.465 270.913 272.628 270.939 270.972C270.85 268.827 270.761 266.683 270.847 263.681C270.902 262.808 270.958 261.935 270.99 260.206C270.939 258.237 270.888 256.267 270.926 253.467C270.944 252.633 270.961 251.799 271.02 250.464C271.056 250.3 271.093 250.137 271.607 249.488C271.452 248.001 271.297 246.514 271.005 244.604C271.005 244.604 270.925 244.167 270.966 243.346C270.956 242.524 270.945 241.702 270.968 240.03C270.962 238.044 270.956 236.059 270.982 233.251C270.952 232.429 270.922 231.608 270.944 230.182C271.004 229.782 271.064 229.382 271.589 228.536C271.433 227.365 271.276 226.193 270.977 224.499C270.901 224.148 270.825 223.796 270.887 222.607C270.929 221.759 270.972 220.911 270.991 219.204C270.946 217.225 270.902 215.246 270.936 212.434C270.945 211.599 270.954 210.764 270.981 209.085C270.95 207.122 270.92 205.16 270.947 202.378C270.951 201.556 270.955 200.734 270.994 199.063C270.975 197.082 270.955 195.101 270.97 192.282C270.939 191.444 270.908 190.606 270.923 189.069C270.993 188.372 271.063 187.674 271.604 186.521C271.401 185.348 271.198 184.174 270.808 182.745C270.808 182.745 270.75 182.434 270.883 181.585C270.921 180.728 270.958 179.87 270.995 178.164C270.942 176.208 270.888 174.252 270.925 171.467C270.941 170.633 270.958 169.8 270.967 168.169C271.02 167.11 271.074 166.05 271.528 164.683C271.397 164.127 271.266 163.571 270.994 162.594Z" fill="#9F884E"/>
<path d="M342.301 330.233C364.801 286.779 362.016 236.919 335.139 198.307C344.793 199.963 362.83 242.802 365.062 267.297C371.061 333.12 330.696 389.976 272.525 408.735C212.579 428.066 147.896 403.469 115.71 349.993C84.2772 297.769 94.5114 234.331 125.994 198.283C103.547 234.627 97.6633 273.206 112.416 313.374C127.201 353.633 155.948 380.504 197.379 391.803C255.431 407.635 313.666 382.386 342.301 330.233Z" fill="#272323"/>
<path d="M173.601 295C173.6 318.924 173.6 342.349 173.6 366.868C164.113 361.953 156.432 356.399 149.866 349.362C149.035 348.471 149.092 346.548 149.102 345.105C149.357 306.307 149.604 267.509 150.086 228.713C150.116 226.28 152.035 223.871 153.075 221.451C153.582 221.579 154.089 221.708 154.595 221.836C154.595 231.302 154.595 240.768 154.595 250.771C156.859 250.91 158.586 251.016 161.09 251.169C161.09 245.44 161.092 240.007 161.09 234.573C161.089 231.242 161.633 227.799 160.979 224.601C158.777 213.84 165.973 208.305 173.603 201.088C173.603 233.093 173.603 263.796 173.601 295Z" fill="#9F8950"/>
<path d="M307.896 351.326C307.045 350.428 306.014 349.275 306.004 348.114C305.886 334.128 305.919 320.141 305.912 306.154C305.912 304.355 305.912 302.555 305.912 300.427C302.914 300.427 300.331 300.427 297.097 300.427C297.016 302.266 296.86 304.183 296.858 306.1C296.841 322.584 296.605 339.074 296.99 355.549C297.12 361.122 294.194 363.001 289.587 364.888C289.587 313.413 289.587 262.431 289.587 210.249C295.58 215.284 300.499 220.222 306.19 223.994C313.368 228.751 315.358 234.697 315.207 243.177C314.666 273.639 314.77 304.118 315.17 334.584C315.262 341.55 313.612 346.875 307.896 351.326Z" fill="#A18B54"/>
<path d="M200.729 204C200.729 261.976 200.729 319.452 200.729 376.922C192.128 377.062 190.98 375.957 190.98 367.98C190.986 294.487 191.159 220.993 190.759 147.503C190.711 138.764 194.601 133.288 200.729 126.688C200.729 153.052 200.729 178.276 200.729 204Z" fill="#A38E58"/>
<path d="M231.461 468.291C232.863 469.116 234.066 469.582 235.496 470.135C235.273 471.709 235.048 473.301 234.807 475.001C229.289 475.001 223.984 475.001 217.321 475.001C218.424 472.823 219.299 471.099 220.172 469.374C220.811 468.111 221.844 466.899 222.017 465.575C222.839 459.313 223.339 453.01 224.129 446.744C224.554 443.382 224.354 440.683 219.893 440.894C220.088 438.935 220.234 437.472 220.41 435.703C226.806 435.703 233.064 435.703 239.965 435.703C241.569 441.653 243.264 447.942 244.959 454.23C245.289 454.233 245.619 454.236 245.949 454.239C247.736 448.255 249.523 442.271 251.455 435.798C257.378 435.798 263.445 435.798 269.761 435.798C269.957 438.241 270.606 440.828 266.652 441.49C265.98 441.603 265.143 443.675 265.213 444.791C265.657 451.922 266.108 459.071 267.103 466.137C267.332 467.761 269.691 469.085 271.84 471.364C271.828 471.501 271.694 472.96 271.528 474.755C264.992 474.755 258.595 474.755 250.866 474.755C256.244 468.352 256.791 461.434 254.383 453.88C252.139 460.726 249.896 467.571 247.485 474.926C245.201 475.116 242.603 475.332 239.605 475.582C237.316 468.385 235.04 461.23 232.764 454.075C232.263 454.092 231.763 454.11 231.262 454.127C231.262 458.729 231.262 463.33 231.461 468.291Z" fill="#080909"/>
<path d="M332.726 437.471C338.488 436.42 344.089 435.619 349.718 435.228C350.425 435.179 351.652 437.194 352.009 438.433C354.439 446.866 356.586 455.381 359.098 463.788C359.712 465.844 361.515 467.517 362.454 469.515C363.174 471.046 363.394 472.812 363.943 474.876C355.836 474.876 348.744 474.876 339.883 474.876C341.597 472.444 342.883 470.874 343.873 469.135C344.66 467.753 345.085 466.166 345.846 464.222C341.519 464.222 338.409 464.222 335.074 464.222C334.664 465.766 334.292 467.165 333.856 468.803C335.339 469.201 336.564 469.53 338.065 469.933C337.988 471.566 337.915 473.139 337.835 474.837C331.407 474.837 325.308 474.837 319.176 474.837C323.687 462.381 328.13 450.114 332.726 437.471ZM339.662 447.161C338.778 450.215 337.894 453.269 336.979 456.433C339.528 456.433 341.423 456.433 343.714 456.433C343.093 453.343 342.652 450.604 341.929 447.942C341.754 447.301 340.64 446.917 339.662 447.161Z" fill="#090909"/>
<path d="M312.243 460.571C313.963 463.894 315.701 466.767 317.113 469.792C317.74 471.137 317.709 472.789 318.056 474.75C310.25 474.75 303.008 474.75 294.014 474.75C295.843 472.364 297.195 470.831 298.269 469.124C299.061 467.866 299.492 466.381 300.156 464.826C290.897 463.019 289.53 463.478 288.671 466.865C290.436 469.804 291.678 471.872 293.452 474.826C285.718 474.826 279.632 474.826 273.326 474.826C278.098 461.957 282.803 449.271 287.692 436.085C292.293 435.772 297.409 435.223 302.526 435.222C303.733 435.222 305.649 436.848 306.03 438.095C308.262 445.397 310.135 452.809 312.243 460.571ZM295.394 456.742C296.167 456.196 297.663 455.536 297.598 455.121C297.114 452.017 296.32 448.961 295.623 445.89C295.177 445.876 294.731 445.863 294.285 445.849C293.301 449.283 292.316 452.718 291.237 456.485C292.708 456.607 293.665 456.686 295.394 456.742Z" fill="#090909"/>
<path d="M109.069 435.887C114.412 435.815 120.579 433.955 123.874 436.239C126.934 438.36 126.959 444.894 128.265 449.501C129.623 454.29 130.73 459.159 132.319 463.868C133.013 465.927 134.78 467.6 135.779 469.589C136.504 471.032 136.767 472.708 137.383 474.775C129.314 474.775 122.083 474.775 113.23 474.775C115.132 471.917 116.494 469.869 117.856 467.822C118.204 468.003 118.552 468.183 118.899 468.363C118.747 467.1 118.595 465.836 118.387 464.112C115.437 464.112 112.588 463.737 109.925 464.278C108.694 464.528 107.826 466.564 106.313 468.361C110.514 469.244 112.964 470.615 110.475 474.781C104.796 474.781 98.7414 474.781 91.5332 474.781C92.7395 472.368 93.6772 470.506 94.6024 468.638C95.4035 467.021 96.3661 465.457 96.9534 463.764C99.7783 455.622 102.409 447.411 105.348 439.312C105.84 437.957 107.513 437.031 109.069 435.887ZM116.845 455.371C116.069 452.19 115.292 449.01 114.516 445.83C114.098 445.869 113.681 445.909 113.263 445.948C112.324 449.359 111.385 452.769 110.23 456.968C112.881 456.623 114.764 456.378 116.845 455.371Z" fill="#090909"/>
<path d="M196.999 474.947C190.207 474.944 183.912 474.944 176.256 474.944C177.804 472.59 178.99 470.937 180.009 469.187C180.79 467.844 181.89 466.394 181.933 464.965C182.14 458.14 182.193 451.299 181.916 444.48C181.854 442.974 180.227 441.533 178.79 440.271C177.337 436.612 178.704 435.341 182.845 435.46C193.266 435.758 203.7 435.559 214.59 435.559C214.114 439.628 213.641 443.664 213.142 447.929C210.305 448.083 207.671 448.227 204.65 448.392C204.704 442.241 200.711 442.572 196.001 443.329C195.82 445.647 195.629 448.089 195.403 450.98C199.67 450.98 203.718 450.98 208.507 450.98C208.291 453.715 208.103 456.081 207.88 458.905C203.714 458.905 199.62 458.905 194.996 458.905C194.996 460.598 194.711 461.954 195.064 463.117C195.565 464.772 196.607 467.651 197.291 467.615C199.723 467.486 203.823 466.838 204.207 465.501C205.962 459.388 210.403 461.517 214.769 461.019C214.1 465.768 213.489 470.115 212.808 474.95C207.695 474.95 202.596 474.95 196.999 474.947Z" fill="#0A0A0A"/>
<path d="M165.785 458.705C168.66 457.941 171.384 457.556 174.786 457.075C174.157 463.454 173.598 469.125 173.016 475.023C161.702 475.023 150.772 475.023 138.243 475.023C139.891 472.584 141.208 470.922 142.196 469.083C143.005 467.576 143.88 465.873 143.932 464.232C144.131 457.914 144.2 451.577 143.89 445.269C143.804 443.521 142.237 441.846 141.35 440.138C140.816 440.267 140.282 440.397 139.748 440.527C139.834 439.083 139.92 437.64 140.031 435.776C147.939 435.776 155.682 435.776 163.719 435.776C164.158 438.765 164.221 441.349 159.959 442.079C158.966 442.249 157.726 444.446 157.631 445.784C157.211 451.752 157.048 457.747 157.069 463.731C157.074 465.109 158.172 466.482 158.767 467.857C160.603 467.032 163.053 466.668 164.112 465.259C165.284 463.699 165.182 461.183 165.785 458.705Z" fill="#080908"/>
<path d="M270.959 199.912C270.956 200.734 270.952 201.556 270.555 202.676C267.748 202.224 265.332 201.474 262.812 200.692C261.933 207.57 262.798 208.458 270.964 209.929C270.954 210.764 270.945 211.599 270.522 212.779C267.722 212.346 265.337 211.569 262.858 210.762C261.78 217.681 262.908 218.858 271.015 220.064C270.972 220.911 270.929 221.759 270.45 222.931C267.627 222.504 265.242 221.753 262.764 220.973C261.889 228.052 261.901 228.066 270.892 230.786C270.922 231.608 270.952 232.429 270.636 233.513C267.784 232.911 265.278 232.047 262.626 231.133C262.019 238.381 262.41 238.801 270.934 240.88C270.945 241.702 270.956 242.524 270.577 243.657C267.784 243.193 265.381 242.419 262.896 241.619C261.799 248.509 262.745 249.516 270.979 250.965C270.961 251.799 270.944 252.633 270.512 253.793C267.704 253.365 265.31 252.611 262.828 251.829C261.86 258.887 263.056 260.128 271.013 261.063C270.958 261.935 270.902 262.808 270.407 263.98C267.682 263.532 265.396 262.785 263.093 262.032C261.432 268.669 261.869 269.191 270.885 271.792C270.914 272.628 270.942 273.465 270.62 274.573C267.846 273.976 265.422 273.108 262.943 272.219C261.604 279.245 262.011 279.712 270.962 281.922C270.96 282.742 270.958 283.562 270.557 284.698C267.749 284.233 265.341 283.451 262.827 282.634C261.872 289.591 262.302 290.065 270.679 291.851C270.817 289.87 270.952 287.934 271.087 285.998C271.047 288.876 271.006 291.754 270.532 294.873C267.703 294.355 265.31 293.596 262.826 292.809C261.819 299.688 261.819 299.688 270.837 302.676C270.842 303.302 270.848 303.928 270.425 304.908C267.601 304.529 265.204 303.795 262.716 303.033C261.934 310.175 261.934 310.175 270.906 312.836C270.863 313.475 270.819 314.115 270.31 315.104C267.533 314.739 265.221 314.025 262.874 313.301C261.616 320.268 261.986 320.689 270.962 322.924C270.952 323.756 270.943 324.588 270.543 325.727C267.877 325.25 265.6 324.466 262.371 323.354C262.751 326.474 263.017 328.662 263.284 330.851C262.28 330.415 261.275 329.98 260.1 328.805C259.914 321.458 259.128 320.695 251.529 320.146C251.352 321.756 251.175 323.377 250.997 324.998C250.553 324.997 250.109 324.996 249.32 324.565C248.969 317.504 247.263 315.981 240.147 316.249C240.421 315.138 240.696 314.026 241.316 312.644C243.914 313.291 246.165 314.208 248.282 315.07C251.316 308.01 246.035 307.009 241.975 305.15C242.023 304.619 242.07 304.088 242.553 303.211C244.841 303.487 246.694 304.109 248.595 304.747C249.398 297.727 249.398 297.727 240.998 294.905C241.006 294.151 241.014 293.396 241.391 292.342C244.027 292.855 246.295 293.669 248.359 294.41C251.338 287.346 246.06 286.421 241.845 284.719C241.887 284.122 241.928 283.526 242.356 282.512C244.64 282.784 246.536 283.473 248.571 284.213C249.378 276.651 247.649 274.965 240.161 275.269C240.432 274.136 240.702 273.004 241.322 271.596C243.894 272.236 246.117 273.152 248.439 274.109C249.653 266.325 249.176 265.794 240.233 264.38C240.212 263.393 240.19 262.407 240.581 261.103C243.498 261.791 246.002 262.796 248.617 263.846C249.342 256.776 249.342 256.776 240.991 253.834C241.003 253.094 241.015 252.354 241.401 251.295C244.032 251.792 246.288 252.609 248.66 253.469C249.295 245.806 247.776 244.263 240.193 244.319C240.214 243.293 240.235 242.266 240.627 240.963C243.479 241.473 245.961 242.259 248.494 243.06C249.553 235.694 247.748 233.877 240.164 234.272C240.434 233.139 240.703 232.005 241.324 230.592C243.94 231.2 246.204 232.087 248.595 233.023C249.388 225.261 247.476 223.407 240.137 224.225C240.151 222.938 240.165 221.651 240.598 220.059C243.498 220.802 245.979 221.849 248.612 222.961C249.33 215.617 249.33 215.617 240.991 212.846C241.003 212.097 241.015 211.348 241.405 210.283C244.037 210.796 246.292 211.626 248.667 212.499C249.283 204.648 247.952 203.297 240.186 203.311C240.467 202.341 240.747 201.372 241.464 200.1C244.103 200.54 246.307 201.284 248.625 202.066C249.301 194.528 247.428 192.73 240.142 193.239C240.082 191.904 240.023 190.569 240.438 189.064C243.422 189.937 245.931 190.981 248.586 192.085C249.393 184.214 248.901 183.683 240.283 182.447C240.297 181.323 240.31 180.198 240.67 178.918C243.508 179.791 245.998 180.82 248.669 181.924C249.275 173.942 248.241 172.868 240.247 172.393C240.366 171.39 240.486 170.387 241.284 169.191C244.089 169.745 246.216 170.491 248.411 171.261C249.472 164.835 249.472 164.835 241.859 161.648C241.898 161.064 241.936 160.48 242.362 159.476C244.647 159.745 246.545 160.434 248.584 161.173C249.375 153.53 247.644 151.85 240.155 152.257C240.144 151.001 240.133 149.744 240.526 148.178C243.427 148.936 245.924 150.003 248.597 151.145C249.38 143.171 248.875 142.63 240.244 141.403C240.053 140.043 239.863 138.683 240.235 137.339C243.311 138.491 245.825 139.627 249.025 141.073C249.025 138.217 249.025 136.107 249.025 133.998C250.515 134.158 252.005 134.318 253.327 134.779C252.55 136.781 250.984 139.53 251.501 140.003C253.701 142.017 256.517 143.357 259.983 145.479C259.983 141.97 259.983 139.99 259.983 138.009C262.709 137.907 265.946 134.831 267.501 139.727C265.747 139.743 264.369 139.397 262.825 139.008C261.591 143.106 262.058 146.001 266.455 147.244C267.694 147.594 268.815 148.359 269.99 148.933C269.979 149.445 269.968 149.956 269.557 150.809C267.039 150.475 264.921 149.8 262.702 149.093C261.879 156.38 262.069 156.59 270.938 158.889C270.949 159.705 270.961 160.522 270.583 161.643C267.794 161.169 265.395 160.392 262.926 159.591C261.777 166.261 262.876 167.439 270.974 168.967C270.958 169.8 270.942 170.633 270.515 171.779C267.714 171.339 265.325 170.588 262.846 169.809C261.82 176.727 262.956 177.903 270.996 179.012C270.958 179.87 270.921 180.728 270.453 181.903C267.633 181.483 265.243 180.745 262.766 179.981C261.894 187.01 261.894 187.01 270.877 189.769C270.908 190.606 270.939 191.444 270.625 192.544C267.781 191.925 265.283 191.042 262.623 190.103C262.03 197.497 262.116 197.589 270.959 199.912ZM251.648 274.549C254.153 275.712 256.657 276.875 259.289 278.097C260.631 270.5 260.337 270.153 251.3 268.48C251.3 270.325 251.3 272.088 251.648 274.549ZM251.166 311.771C250.627 318.331 256.123 317.022 259.93 319.358C259.93 316.813 260.45 315.033 259.802 313.954C258.938 312.517 257.319 311.205 255.736 310.628C254.435 310.154 252.715 310.83 251.166 311.771ZM257.555 147.018C255.596 146.405 253.637 145.791 251.6 145.153C250.803 152.331 251.4 152.983 260.606 154.589C259.747 151.848 259.03 149.563 257.555 147.018ZM255.318 184.105C256.7 184.584 258.083 185.063 259.533 185.566C260.421 177.855 260.123 177.517 251.726 176.329C250.755 181.693 250.755 181.693 255.318 184.105ZM253.131 186.447C252.487 186.913 251.385 187.288 251.27 187.86C250.353 192.436 251.931 193.861 259.426 195.495C260.477 189.06 260.477 189.06 253.131 186.447ZM259.764 169.131C257.231 167.88 254.697 166.629 251.953 165.275C250.549 172.526 251.423 173.504 259.887 174.846C259.887 173.167 259.887 171.553 259.764 169.131ZM251.421 222.713C254.031 224.126 256.641 225.539 259.559 227.119C260.231 219.107 259.186 217.991 251.238 217.536C251.238 219.01 251.238 220.479 251.421 222.713ZM256.631 156.996C254.977 156.457 253.323 155.917 251.586 155.351C250.786 162.483 251.186 162.936 259.313 164.643C260.394 159.47 260.394 159.47 256.631 156.996ZM251.275 228.21C251.106 234.339 252.285 235.478 259.637 236.289C260.231 229.099 260.129 228.988 251.275 228.21ZM259.86 266.632C259.971 260.072 258.79 258.925 251.573 258.584C250.838 264.952 251.339 265.5 259.86 266.632ZM251.184 301.614C250.706 307.977 256.213 306.715 259.919 308.923C259.919 306.73 260.462 304.91 259.793 303.878C258.772 302.305 257.075 300.898 255.349 300.154C254.265 299.686 252.602 300.559 251.184 301.614ZM251.171 250.546C250.733 256.688 255.929 255.55 259.608 257.396C259.733 255.408 260.403 253.606 259.78 252.631C258.784 251.07 257.093 249.661 255.379 248.956C254.283 248.505 252.617 249.436 251.171 250.546ZM251.198 198.189C251.288 203.487 253.047 205.003 259.571 205.407C260.289 198.821 257.714 196.358 251.198 198.189ZM254.857 214.741C256.349 215.23 257.84 215.719 259.434 216.242C260.388 208.906 259.677 208.122 251.319 207.162C251.469 209.976 249.734 213.146 254.857 214.741ZM251.19 240.481C250.952 246.547 256.326 245.101 259.903 247.732C259.903 245.204 260.407 243.459 259.779 242.36C258.946 240.901 257.396 239.452 255.841 238.928C254.532 238.488 252.776 239.376 251.19 240.481ZM251.714 289.286C250.588 295.563 251.599 296.679 259.407 297.78C260.544 291.406 260.544 291.406 251.714 289.286ZM253.322 278.954C252.625 279.435 251.469 279.796 251.307 280.417C250.228 284.543 252.244 286.309 259.38 287.713C261.517 282.472 258.917 280.13 253.322 278.954Z" fill="#A08E61"/>
<path d="M252.203 327.13C253.645 327.3 255.214 327.831 257.031 328.622C255.629 328.417 253.979 327.955 252.203 327.13Z" fill="#A08E61"/>
<path d="M271.368 249.73C271.087 248.597 271.044 247.22 271.072 245.435C271.297 246.514 271.452 248.001 271.368 249.73Z" fill="#A08E61"/>
<path d="M271.369 186.749C271.075 185.917 271.017 184.857 270.977 183.399C271.198 184.174 271.401 185.348 271.369 186.749Z" fill="#A08E61"/>
<path d="M271.358 146.759C271.082 145.922 271.04 144.865 271.069 143.416C271.29 144.196 271.441 145.367 271.358 146.759Z" fill="#A08E61"/>
<path d="M271.357 228.759C271.079 227.923 271.035 226.865 271.055 225.415C271.276 226.193 271.433 227.365 271.357 228.759Z" fill="#A08E61"/>
<path d="M256.779 135.928C256.081 136.015 255.226 135.788 254.155 135.307C254.832 135.24 255.726 135.426 256.779 135.928Z" fill="#A08E61"/>
<path d="M271.328 164.836C271.091 164.55 271.054 164.11 271.076 163.343C271.266 163.571 271.397 164.127 271.328 164.836Z" fill="#A08E61"/>
<path d="M269.828 140.767C269.425 140.871 268.847 140.718 268.087 140.323C268.488 140.224 269.071 140.368 269.828 140.767Z" fill="#A08E61"/>
<path d="M241.136 302.287C241.322 302.182 241.638 302.291 242.064 302.631C241.871 302.742 241.569 302.621 241.136 302.287Z" fill="#A08E61"/>
</svg>
