<svg width="60" height="60" viewBox="0 0 60 60" fill="none" xmlns="http://www.w3.org/2000/svg">
<g id="mdi:progress-check">
<path id="Vector" d="M32.5 5.07495V10.125C43.475 11.475 51.25 21.45 49.9 32.425C48.75 41.525 41.6 48.75 32.5 49.825V54.825C46.25 53.45 56.25 41.25 54.875 27.5C53.75 15.625 44.325 6.24995 32.5 5.07495ZM27.5 5.14995C22.625 5.62495 17.975 7.49995 14.175 10.65L17.75 14.35C20.55 12.1 23.925 10.65 27.5 10.15V5.14995ZM10.65 14.175C7.52414 17.9683 5.6005 22.6077 5.125 27.5H10.125C10.6 23.95 12 20.575 14.225 17.75L10.65 14.175ZM38.75 21.25L26.55 33.45L21.25 28.15L18.6 30.8L26.55 38.75L41.4 23.9L38.75 21.25ZM5.15 32.5C5.65 37.4 7.575 42.025 10.675 45.825L14.225 42.25C12.0173 39.424 10.6099 36.0565 10.15 32.5H5.15ZM17.75 45.925L14.175 49.35C17.9619 52.5067 22.5982 54.4726 27.5 55V50C23.9435 49.5401 20.576 48.1327 17.75 45.925Z" fill="#275CA2"/>
</g>
</svg>
