<svg width="61" height="61" viewBox="0 0 61 61" fill="none" xmlns="http://www.w3.org/2000/svg">
<g clip-path="url(#clip0_28_326)">
<path d="M55.3735 28.6439C54.4635 14.7939 41.616 3.08639 27.2585 2.98389C26.8199 2.22418 26.1891 1.59323 25.4295 1.15442C24.6699 0.715598 23.8083 0.484348 22.931 0.483887L17.931 0.483887C15.2789 0.483887 12.7353 1.53746 10.86 3.41282C8.9846 5.28818 7.93103 7.83172 7.93103 10.4839V50.4839C7.93103 53.1361 8.9846 55.6796 10.86 57.555C12.7353 59.4303 15.2789 60.4839 17.931 60.4839H22.931C23.8083 60.4834 24.6699 60.2522 25.4295 59.8134C26.1891 59.3745 26.8199 58.7436 27.2585 57.9839H27.931C31.6928 57.9775 35.4136 57.2022 38.8649 55.7057C42.3163 54.2092 45.4253 52.023 48.001 49.2814C50.5895 46.5378 52.5811 43.2874 53.8501 39.7353C55.119 36.1832 55.6377 32.4066 55.3735 28.6439ZM44.351 45.8614C42.2553 48.1194 39.714 49.9182 36.8878 51.1442C34.0615 52.3701 31.0117 52.9965 27.931 52.9839H25.431C24.768 52.9839 24.1321 53.2473 23.6633 53.7161C23.1944 54.185 22.931 54.8208 22.931 55.4839H17.931C16.6049 55.4839 15.3332 54.9571 14.3955 54.0194C13.4578 53.0817 12.931 51.81 12.931 50.4839V47.9839H15.431C16.0941 47.9839 16.73 47.7205 17.1988 47.2517C17.6676 46.7828 17.931 46.1469 17.931 45.4839C17.931 44.8208 17.6676 44.185 17.1988 43.7161C16.73 43.2473 16.0941 42.9839 15.431 42.9839H12.931V37.9839H15.431C16.0941 37.9839 16.73 37.7205 17.1988 37.2517C17.6676 36.7828 17.931 36.1469 17.931 35.4839C17.931 34.8208 17.6676 34.185 17.1988 33.7161C16.73 33.2473 16.0941 32.9839 15.431 32.9839H12.931V27.9839H15.431C16.0941 27.9839 16.73 27.7205 17.1988 27.2517C17.6676 26.7828 17.931 26.1469 17.931 25.4839C17.931 24.8208 17.6676 24.185 17.1988 23.7161C16.73 23.2473 16.0941 22.9839 15.431 22.9839H12.931V17.9839H15.431C16.0941 17.9839 16.73 17.7205 17.1988 17.2517C17.6676 16.7828 17.931 16.1469 17.931 15.4839C17.931 14.8208 17.6676 14.185 17.1988 13.7161C16.73 13.2473 16.0941 12.9839 15.431 12.9839H12.931V10.4839C12.931 9.1578 13.4578 7.88603 14.3955 6.94835C15.3332 6.01067 16.6049 5.48389 17.931 5.48389H22.931C22.931 6.14693 23.1944 6.78281 23.6633 7.25165C24.1321 7.72049 24.768 7.98389 25.431 7.98389H27.071C38.9635 7.98389 49.6385 17.5939 50.381 28.9689C50.5993 32.0486 50.1761 35.14 49.1382 38.0477C48.1003 40.9554 46.4702 43.6161 44.351 45.8614ZM27.931 17.9839C26.6049 17.9839 25.3332 18.5107 24.3955 19.4484C23.4578 20.386 22.931 21.6578 22.931 22.9839V37.9839C22.9464 39.2923 23.4708 40.5433 24.393 41.4716C25.3152 42.3998 26.5627 42.9324 27.871 42.9564C30.9664 42.9225 33.9434 41.7614 36.2443 39.6906C38.5452 37.6197 40.0124 34.7811 40.371 31.7064C40.5417 29.9701 40.3469 28.2174 39.7994 26.5609C39.2519 24.9045 38.3637 23.381 37.192 22.0884C36.0202 20.7959 34.5909 19.7629 32.9959 19.056C31.4009 18.3491 29.6756 17.9839 27.931 17.9839ZM27.931 37.9839V22.9839C28.9794 22.9835 30.0162 23.203 30.9746 23.628C31.9329 24.0531 32.7915 24.6744 33.4949 25.4518C34.1983 26.2292 34.7309 27.1454 35.0584 28.1413C35.3858 29.1372 35.5009 30.1908 35.396 31.2339C35.1641 33.0656 34.2836 34.7536 32.9141 35.9919C31.5446 37.2303 29.7768 37.9369 27.931 37.9839Z" fill="#B59D64"/>
</g>
<defs>
<clipPath id="clip0_28_326">
<rect width="60" height="60" fill="white" transform="translate(0.43103 0.483887)"/>
</clipPath>
</defs>
</svg>
