<svg width="61" height="60" viewBox="0 0 61 60" fill="none" xmlns="http://www.w3.org/2000/svg">
<g id="shield-check 1" clip-path="url(#clip0_104_1188)">
<g id="01 align center">
<path id="Vector" d="M30.37 60.0225L29.485 59.63C28.5 59.1975 5.5 48.81 5.5 30V13.69C5.50088 12.1204 5.99696 10.5911 6.9176 9.31989C7.83824 8.04868 9.1365 7.10035 10.6275 6.60996L30.5 0.0224609L50.3725 6.60996C51.8635 7.10035 53.1618 8.04868 54.0824 9.31989C55.003 10.5911 55.4991 12.1204 55.5 13.69V30C55.5 51.4425 32.28 59.3875 31.29 59.7175L30.37 60.0225ZM30.5 5.26496L12.21 11.33C11.7124 11.4925 11.2789 11.8084 10.9718 12.2323C10.6646 12.6562 10.4995 13.1665 10.5 13.69V30C10.5 43.735 26.6 52.645 30.6175 54.6525C34.6275 53.04 50.5 45.6575 50.5 30V13.69C50.5005 13.1665 50.3354 12.6562 50.0282 12.2323C49.7211 11.8084 49.2876 11.4925 48.79 11.33L30.5 5.26496Z" fill="#275CA2"/>
<path id="Vector_2" d="M28.2774 36.3549H28.1949C27.5621 36.3452 26.9379 36.2072 26.3599 35.9494C25.782 35.6916 25.2623 35.3192 24.8324 34.8549L19.0674 28.8549L22.6699 25.3999L28.2799 31.2499L41.2324 18.2974L44.7674 21.8324L31.6149 34.9849C31.1768 35.4226 30.6563 35.769 30.0834 36.0042C29.5105 36.2394 28.8966 36.3585 28.2774 36.3549Z" fill="#275CA2"/>
</g>
</g>
<defs>
<clipPath id="clip0_104_1188">
<rect width="60" height="60" fill="white" transform="translate(0.5)"/>
</clipPath>
</defs>
</svg>
